<svg id="Layer_1" data-name="Layer 1" xmlns="http://www.w3.org/2000/svg" xmlns:xlink="http://www.w3.org/1999/xlink" viewBox="0 0 16 16"><defs><style>.cls-1{opacity:0.5;}.cls-2{fill:url(#linear-gradient);}.cls-3{fill:#65b359;}.cls-4{fill:#007236;}.cls-5{fill:#ccc;}.cls-6{fill:#4d4017;stroke:#c13641;stroke-miterlimit:10;stroke-width:0.75px;}.cls-7{font-size:5.25px;fill:#c13641;font-family:ZapfDingbatsITC, Zapf Dingbats;}</style><linearGradient id="linear-gradient" x1="4.17" y1="4.32" x2="13.91" y2="14.06" gradientTransform="translate(-0.15 -0.18) rotate(0.15)" gradientUnits="userSpaceOnUse"><stop offset="0" stop-color="#82929a"/><stop offset="0.26" stop-color="#7e8d95"/><stop offset="0.58" stop-color="#717f86"/><stop offset="0.92" stop-color="#5c686e"/><stop offset="1" stop-color="#566267"/></linearGradient></defs><title>application-spec-errors-hidden_dark</title><g class="cls-1"><path class="cls-2" d="M7.56,6.05l0-4.38H13l0,13-10,0L3,6ZM3,5.12H6.65V1.67Z"/><rect class="cls-3" x="1.02" y="7.56" width="14" height="6" rx="3"/><path class="cls-4" d="M4,13.06a2.5,2.5,0,0,1,0-5h8a2.5,2.5,0,0,1,0,5Z"/><path class="cls-5" d="M5.61,9.76l-.46,2.1a7.27,7.27,0,0,1-1.09,2.7,2.16,2.16,0,0,1-1.83.89,1.27,1.27,0,0,1-.81-.21.63.63,0,0,1-.25-.51.56.56,0,0,1,.2-.45.66.66,0,0,1,.46-.19.58.58,0,0,1,.62.58c0,.2.12.3.26.3s.28-.13.4-.39A9.2,9.2,0,0,0,3.55,13l.14-.68c.05-.16.08-.29.1-.38l.47-2.17H3.65l.16-.52h.55a4.64,4.64,0,0,1,1-2.12,2,2,0,0,1,1.4-.52,1.7,1.7,0,0,1,.89.21A.63.63,0,0,1,8,7.37.6.6,0,0,1,7.43,8C7.19,8,7,7.78,6.8,7.44s-.27-.39-.4-.39-.28.21-.36.62L5.73,9.24h.7l-.16.52Z"/><circle class="cls-6" cx="11.52" cy="10.81" r="3.5"/><text class="cls-7" transform="translate(9.41 12.97)">✔︎</text></g></svg>