<svg id="Layer_1" data-name="Layer 1" xmlns="http://www.w3.org/2000/svg" viewBox="0 0 16 16"><defs><style>.cls-1{fill:#fff200;stroke:#007236;stroke-miterlimit:10;}.cls-2{fill:#007236;}</style></defs><title>application-spec-example-file-eol</title><circle class="cls-1" cx="8" cy="8" r="6"/><path class="cls-2" d="M7.45,12.31a15.75,15.75,0,0,0-2-1.6c-.3-.2-.59-.41-.88-.63L4.45,10V9.76l.09-.16.94-.67a15.47,15.47,0,0,0,2-1.56l.12-.13L8,7.47V8.53c.7,0,.73-.21.73-.82V4.24h2.63V8.38a2.73,2.73,0,0,1-2.8,2.77H8v1.06l-.46.23ZM6.21,9.46c-.3.2-.36.34-.36.38s.24.28.37.38l.91.71v-.68H8.54a1.85,1.85,0,0,0,2-2V5.14H9.66V7.67c0,.7,0,1.76-1.74,1.76H7.13V8.82Z"/></svg>