<svg id="Layer_1" data-name="Layer 1" xmlns="http://www.w3.org/2000/svg" xmlns:xlink="http://www.w3.org/1999/xlink" viewBox="0 0 16 16"><defs><style>.cls-1{fill:url(#linear-gradient);}.cls-2{fill:url(#linear-gradient-2);}.cls-3{fill:url(#linear-gradient-3);}.cls-4{fill:#007236;}.cls-5{fill:#a3d39c;}.cls-6{fill:#363636;}.cls-7{fill:#fff200;stroke:#ed1c24;stroke-miterlimit:10;stroke-width:0.75px;}.cls-8{font-size:4.5px;fill:#ed1c24;font-family:ZapfDingbatsITC, Zapf Dingbats;}</style><linearGradient id="linear-gradient" x1="6.97" y1="6.66" x2="15.23" y2="14.92" gradientUnits="userSpaceOnUse"><stop offset="0" stop-color="#b4c3cb"/><stop offset="0.21" stop-color="#acbac2"/><stop offset="0.55" stop-color="#97a3aa"/><stop offset="0.98" stop-color="#747d82"/><stop offset="1" stop-color="#727b80"/></linearGradient><linearGradient id="linear-gradient-2" x1="4.47" y1="4.66" x2="12.73" y2="12.92" xlink:href="#linear-gradient"/><linearGradient id="linear-gradient-3" x1="1.93" y1="2.54" x2="10.19" y2="10.81" xlink:href="#linear-gradient"/></defs><title>application-spec-errors-multi</title><path class="cls-1" d="M10,8.27l0-3.71H14.6v11H6.13V8.27ZM6.13,7.49H9.22V4.56Z"/><path class="cls-2" d="M7.48,6.27l0-3.71H12.1v11H3.63V6.27ZM3.63,5.49H6.72V2.56Z"/><path class="cls-3" d="M5,4.16l0-3.72H9.56v11H1.1V4.16ZM1.1,3.37H4.18V.44Z"/><rect class="cls-4" y="6.69" width="12" height="5.14" rx="2.14"/><path class="cls-5" d="M2.57,11.4a2.15,2.15,0,0,1,0-4.29H9.43a2.15,2.15,0,0,1,0,4.29Z"/><path class="cls-6" d="M3.94,8.57l-.4,1.8a6.32,6.32,0,0,1-.93,2.32A1.87,1.87,0,0,1,1,13.45a1.11,1.11,0,0,1-.7-.18.54.54,0,0,1-.21-.43.48.48,0,0,1,.17-.39.53.53,0,0,1,.39-.16.5.5,0,0,1,.54.5c0,.16.1.25.22.25s.24-.11.34-.34a8.29,8.29,0,0,0,.38-1.36l.12-.58c0-.14.06-.25.08-.33l.4-1.86H2.25l.14-.44h.48a3.86,3.86,0,0,1,.88-1.82A1.71,1.71,0,0,1,5,5.87a1.45,1.45,0,0,1,.76.18A.55.55,0,0,1,6,6.53a.52.52,0,0,1-.14.35A.49.49,0,0,1,5.5,7c-.22,0-.4-.15-.55-.45s-.23-.33-.34-.33-.24.18-.31.53L4,8.13h.59l-.13.44Z"/><circle class="cls-7" cx="9" cy="9.47" r="3"/><text class="cls-8" transform="translate(7.19 11.33)">✔︎</text></svg>