<svg id="Layer_1" data-name="Layer 1" xmlns="http://www.w3.org/2000/svg" xmlns:xlink="http://www.w3.org/1999/xlink" viewBox="0 0 16 16"><defs><style>.cls-1{opacity:0.5;}.cls-2{fill:url(#linear-gradient);}.cls-3{fill:#007236;}.cls-4,.cls-6{fill:#a3d39c;}.cls-5{fill:#363636;}.cls-6{stroke:#007236;stroke-miterlimit:10;stroke-width:0.75px;}.cls-7{font-size:5.25px;font-family:ZapfDingbatsITC, Zapf Dingbats;}</style><linearGradient id="linear-gradient" x1="3.98" y1="4.43" x2="13.75" y2="14.2" gradientUnits="userSpaceOnUse"><stop offset="0" stop-color="#b4c3cb"/><stop offset="0.21" stop-color="#acbac2"/><stop offset="0.55" stop-color="#97a3aa"/><stop offset="0.98" stop-color="#747d82"/><stop offset="1" stop-color="#727b80"/></linearGradient></defs><title>application-flexmark-spec-hidden</title><g class="cls-1"><path class="cls-2" d="M7.55,6.33,7.51,2H13V15H3V6.33ZM3,5.41H6.64V2Z"/><rect class="cls-3" x="1" y="8" width="14" height="6" rx="3"/><path class="cls-4" d="M4,13.5a2.5,2.5,0,0,1,0-5h8a2.5,2.5,0,0,1,0,5Z"/><path class="cls-5" d="M5.59,10.2l-.47,2.1A7,7,0,0,1,4,15a2.17,2.17,0,0,1-1.83.9,1.27,1.27,0,0,1-.81-.21.63.63,0,0,1-.25-.51.58.58,0,0,1,.2-.46.65.65,0,0,1,.46-.18.58.58,0,0,1,.62.58c0,.19.12.29.26.29s.28-.13.4-.39a9.92,9.92,0,0,0,.44-1.59l.14-.67a3.88,3.88,0,0,0,.09-.39l.48-2.17H3.63l.16-.52h.55a4.64,4.64,0,0,1,1-2.12A2.07,2.07,0,0,1,6.77,7a1.7,1.7,0,0,1,.89.21A.63.63,0,0,1,8,7.81a.57.57,0,0,1-.17.41.54.54,0,0,1-.42.18c-.25,0-.46-.17-.63-.52s-.27-.39-.4-.39S6.1,7.7,6,8.11L5.71,9.68h.7l-.16.52Z"/><circle class="cls-6" cx="11.5" cy="11.25" r="3.5"/><text class="cls-7" transform="translate(9.39 13.41)">✔︎</text></g></svg>