<svg id="Layer_1" data-name="Layer 1" xmlns="http://www.w3.org/2000/svg" viewBox="0 0 16 16"><defs><style>.cls-1{fill:#4d4017;stroke:#65b359;stroke-miterlimit:10;}.cls-2,.cls-3{fill:#cc333f;}.cls-3{font-size:6px;font-family:ZapfDingbatsITC, Zapf Dingbats;}</style></defs><title>application-spec-example-no-file-eol_dark</title><circle class="cls-1" cx="8" cy="8" r="6"/><path class="cls-2" d="M8,12.81a15.08,15.08,0,0,0-2-1.6c-.29-.2-.59-.41-.88-.63L5,10.5v-.24l.1-.16c.3-.23.62-.45.93-.67A15.47,15.47,0,0,0,8,7.87l.12-.13L8.61,8V9c.7,0,.74-.21.74-.82V4.74H12V8.88a2.73,2.73,0,0,1-2.8,2.77H8.61v1.06l-.45.23ZM6.79,10c-.29.2-.36.34-.36.38s.24.28.37.38l.91.71v-.68H9.12a1.84,1.84,0,0,0,2-2V5.64h-.82V8.17c0,.7,0,1.76-1.75,1.76H7.71V9.32Z"/><text class="cls-3" transform="translate(4.4 7.92)">✘</text></svg>