<svg id="Layer_1" data-name="Layer 1" xmlns="http://www.w3.org/2000/svg" xmlns:xlink="http://www.w3.org/1999/xlink" viewBox="0 0 16 16"><defs><style>.cls-1{opacity:0.5;}.cls-2{fill:url(#linear-gradient);}.cls-3{fill:#007236;}.cls-4{fill:#a3d39c;}.cls-5{fill:#363636;}.cls-6{fill:#fff200;stroke:#ed1c24;stroke-miterlimit:10;stroke-width:0.75px;}.cls-7{font-size:5.25px;fill:#ed1c24;font-family:ZapfDingbatsITC, Zapf Dingbats;}</style><linearGradient id="linear-gradient" x1="3.98" y1="3.99" x2="13.75" y2="13.75" gradientUnits="userSpaceOnUse"><stop offset="0" stop-color="#b4c3cb"/><stop offset="0.21" stop-color="#acbac2"/><stop offset="0.55" stop-color="#97a3aa"/><stop offset="0.98" stop-color="#747d82"/><stop offset="1" stop-color="#727b80"/></linearGradient></defs><title>application-spec-errors-hidden</title><g class="cls-1"><path class="cls-2" d="M7.55,5.89l0-4.39H13v13H3V5.89ZM3,5H6.64V1.5Z"/><rect class="cls-3" x="1" y="7.56" width="14" height="6" rx="3"/><path class="cls-4" d="M4,13.06a2.5,2.5,0,0,1,0-5h8a2.5,2.5,0,0,1,0,5Z"/><path class="cls-5" d="M5.59,9.76l-.47,2.1A7.12,7.12,0,0,1,4,14.56a2.16,2.16,0,0,1-1.83.89,1.27,1.27,0,0,1-.81-.21.63.63,0,0,1-.25-.51.56.56,0,0,1,.2-.45.66.66,0,0,1,.46-.19.58.58,0,0,1,.62.58c0,.2.12.3.26.3s.28-.13.4-.39A10.26,10.26,0,0,0,3.53,13l.14-.68a3.81,3.81,0,0,0,.09-.38l.48-2.17H3.63l.16-.52h.55a4.64,4.64,0,0,1,1-2.12,2,2,0,0,1,1.4-.52,1.7,1.7,0,0,1,.89.21A.63.63,0,0,1,8,7.37a.58.58,0,0,1-.17.41A.54.54,0,0,1,7.41,8c-.25,0-.46-.18-.63-.52s-.27-.39-.4-.39-.28.21-.36.62L5.71,9.24h.7l-.16.52Z"/><circle class="cls-6" cx="11.5" cy="10.81" r="3.5"/><text class="cls-7" transform="translate(9.39 12.97)">✔︎</text></g></svg>