<svg id="Layer_1" data-name="Layer 1" xmlns="http://www.w3.org/2000/svg" xmlns:xlink="http://www.w3.org/1999/xlink" viewBox="0 0 16 16"><defs><style>.cls-1{fill:url(#linear-gradient);}.cls-2{fill:url(#linear-gradient-2);}.cls-3{fill:url(#linear-gradient-3);}.cls-4{fill:#65b359;}.cls-5,.cls-7{fill:#007236;}.cls-6,.cls-8{fill:#ccc;}.cls-7{stroke:#65b359;stroke-miterlimit:10;stroke-width:0.75px;}.cls-8{font-size:4.5px;font-family:ZapfDingbatsITC, Zapf Dingbats;}</style><linearGradient id="linear-gradient" x1="6.86" y1="7.37" x2="15.1" y2="15.61" gradientTransform="translate(0.01 -0.29) rotate(0.15)" gradientUnits="userSpaceOnUse"><stop offset="0" stop-color="#82929a"/><stop offset="0.26" stop-color="#7e8d95"/><stop offset="0.58" stop-color="#717f86"/><stop offset="0.92" stop-color="#5c686e"/><stop offset="1" stop-color="#566267"/></linearGradient><linearGradient id="linear-gradient-2" x1="4.35" y1="5.37" x2="12.6" y2="13.62" xlink:href="#linear-gradient"/><linearGradient id="linear-gradient-3" x1="1.85" y1="3.38" x2="10.09" y2="11.62" xlink:href="#linear-gradient"/></defs><title>application-flexmark-spec-multi_dark</title><path class="cls-1" d="M9.86,8.71,9.83,5h4.63l0,11L6,16,6,8.7ZM6,7.92H9.09V5Z"/><path class="cls-2" d="M7.36,6.71,7.33,3H12l0,11L3.5,14l0-7.28ZM3.52,5.92H6.59V3Z"/><path class="cls-3" d="M4.86,4.71,4.83,1H9.46l0,11L1,12,1,4.7ZM1,3.92H4.09V1Z"/><rect class="cls-4" x="0.02" y="7.13" width="12" height="5.14" rx="2.57"/><path class="cls-5" d="M2.59,11.84a2.14,2.14,0,0,1,0-4.28H9.45a2.14,2.14,0,1,1,0,4.28Z"/><path class="cls-6" d="M4,9l-.4,1.79a6.32,6.32,0,0,1-.93,2.32,1.88,1.88,0,0,1-1.57.77,1.11,1.11,0,0,1-.7-.18.56.56,0,0,1-.21-.44.48.48,0,0,1,.17-.39.53.53,0,0,1,.39-.16.51.51,0,0,1,.54.5c0,.17.1.25.22.25s.24-.11.34-.34a8.08,8.08,0,0,0,.38-1.35l.12-.59c0-.13.06-.24.08-.32L2.79,9H2.27l.14-.45h.48a3.86,3.86,0,0,1,.88-1.82A1.76,1.76,0,0,1,5,6.31a1.45,1.45,0,0,1,.76.18A.55.55,0,0,1,6,7a.52.52,0,0,1-.14.35.49.49,0,0,1-.36.15c-.22,0-.4-.15-.55-.45s-.23-.33-.34-.33-.24.18-.31.54L4.06,8.57h.59L4.52,9Z"/><circle class="cls-7" cx="9.02" cy="9.91" r="3"/><text class="cls-8" transform="translate(7.21 11.77)">✔︎</text></svg>