<svg id="Layer_1" data-name="Layer 1" xmlns="http://www.w3.org/2000/svg" viewBox="0 0 16 16"><defs><style>.cls-1{fill:#4d4017;stroke:#65b359;stroke-miterlimit:10;}.cls-2{fill:#65b359;}</style></defs><title>application-spec-example-file-eol_dark</title><circle class="cls-1" cx="8" cy="8" r="6"/><path class="cls-2" d="M7.53,12.31a15.08,15.08,0,0,0-2-1.6c-.29-.2-.59-.41-.88-.63L4.53,10V9.76l.1-.16c.3-.23.62-.45.93-.67a15.47,15.47,0,0,0,2-1.56l.12-.13.46.23V8.53c.7,0,.74-.21.74-.82V4.24h2.62V8.38a2.73,2.73,0,0,1-2.8,2.77H8.11v1.06l-.45.23ZM6.29,9.46c-.29.2-.36.34-.36.38s.24.28.37.38l.91.71v-.68H8.62a1.84,1.84,0,0,0,2-2V5.14H9.75V7.67c0,.7,0,1.76-1.75,1.76H7.21V8.82Z"/></svg>