<svg id="Layer_1" data-name="Layer 1" xmlns="http://www.w3.org/2000/svg" xmlns:xlink="http://www.w3.org/1999/xlink" viewBox="0 0 16 16"><defs><style>.cls-1,.cls-9{fill:#65b359;}.cls-2,.cls-4,.cls-7{fill:#007236;}.cls-3,.cls-5{fill:#ccc;}.cls-4,.cls-6,.cls-7{stroke:#65b359;}.cls-4,.cls-9{stroke-miterlimit:10;}.cls-4{stroke-width:0.75px;}.cls-5{font-size:5.25px;font-family:ZapfDingbatsITC, Zapf Dingbats;}.cls-6,.cls-7,.cls-9{stroke-width:0.19px;}.cls-6{fill:url(#radial-gradient);}.cls-8{fill:url(#linear-gradient);}.cls-9{stroke:#a3d39c;}</style><radialGradient id="radial-gradient" cx="16.52" cy="7.29" r="2.62" gradientTransform="translate(-0.92 1.08) scale(0.9 0.9)" gradientUnits="userSpaceOnUse"><stop offset="0" stop-color="#a3d39c"/><stop offset="1" stop-color="#007236"/></radialGradient><linearGradient id="linear-gradient" x1="6.64" y1="13.44" x2="9.67" y2="13.44" gradientUnits="userSpaceOnUse"><stop offset="0" stop-color="#fba91a"/><stop offset="1" stop-color="#82580e"/></linearGradient></defs><title>intention-action-flexmark-spec_dark</title><rect class="cls-1" x="1" y="2.03" width="14" height="6" rx="3"/><path class="cls-2" d="M4,7.53a2.5,2.5,0,0,1,0-5h8a2.5,2.5,0,0,1,0,5Z"/><path class="cls-3" d="M5.59,4.23,5.12,6.32A7.17,7.17,0,0,1,4,9a2.18,2.18,0,0,1-1.83.89,1.27,1.27,0,0,1-.81-.21.63.63,0,0,1-.25-.51.56.56,0,0,1,.2-.45.62.62,0,0,1,.46-.19.58.58,0,0,1,.62.58c0,.2.12.3.26.3s.28-.13.4-.4a10,10,0,0,0,.44-1.58l.14-.68a3.81,3.81,0,0,0,.09-.38l.48-2.17H3.63l.16-.52h.55a4.59,4.59,0,0,1,1-2.12,2,2,0,0,1,1.4-.52,1.7,1.7,0,0,1,.89.21A.63.63,0,0,1,8,1.84a.58.58,0,0,1-.17.41.54.54,0,0,1-.42.17c-.25,0-.46-.17-.63-.52s-.27-.38-.4-.38-.28.2-.36.62L5.71,3.71h.7l-.16.52Z"/><circle class="cls-4" cx="11.5" cy="5.27" r="3.5"/><text class="cls-5" transform="translate(9.39 7.44)">✔︎</text><polygon class="cls-6" points="12.9 6.71 11.9 6.95 12.26 7.74 12.9 8.43 13.76 9.24 14.67 9.76 15 8.83 14.67 8.07 13.45 6.95 12.9 6.71"/><polygon class="cls-7" points="8 13.55 12.9 8.43 12.26 7.74 7.33 12.93 8 13.55"/><polygon class="cls-7" points="13.76 9.24 8.79 14.24 8 13.55 12.9 8.43 13.76 9.24"/><polygon class="cls-8" points="6.64 14.02 6.88 11.95 7.33 12.93 8 13.55 8.79 14.24 9.67 14.62 7.52 14.93 6.64 14.02"/><polygon class="cls-7" points="6 15.5 6.64 14.02 7.52 14.93 6 15.5"/><polygon class="cls-9" points="6.88 11.95 11.9 6.95 12.26 7.74 7.33 12.93 6.88 11.95"/><polygon class="cls-9" points="14.67 9.76 9.67 14.62 8.79 14.24 13.76 9.24 14.67 9.76"/></svg>