<svg id="Layer_1" data-name="Layer 1" xmlns="http://www.w3.org/2000/svg" viewBox="0 0 16 16"><defs><style>.cls-1{fill:#80501d;}</style></defs><title>admonition-warning_dark</title><path class="cls-1" d="M1,12.81,7.22,2.39a.81.81,0,0,1,1.38,0l6.2,10.42A.8.8,0,0,1,14.11,14H1.78A.81.81,0,0,1,1,12.81Zm8.12-3.2v-4a1.23,1.23,0,0,0-.53-.22,2.79,2.79,0,0,0-.77-.08H7.6c-.23.08-.38.15-.38.3V8.72A.74.74,0,0,0,7.06,9c-.07.23-.07.3,0,.38A6.17,6.17,0,0,0,8,9.83a2.77,2.77,0,0,0,.92.23h.15c.16,0,.23-.15.23-.38C9.13,9.68,9.13,9.61,9.13,9.61Zm-.61,1a2.32,2.32,0,0,0-.92-.15c-.23,0-.31.08-.38.3v.67c0,.15,0,.22-.08.3s-.15.22-.08.3a3.12,3.12,0,0,0,.92.37,2.69,2.69,0,0,0,.85.15c.15,0,.3-.08.3-.23s.08-.29.08-.52a2.11,2.11,0,0,1,.07-.52V11C9.13,10.87,8.9,10.8,8.52,10.65Z"/></svg>