<svg id="Layer_1" data-name="Layer 1" xmlns="http://www.w3.org/2000/svg" viewBox="0 0 16 16"><defs><style>.cls-1{fill:#3d8e99;}</style></defs><title>admonition-info_dark</title><path class="cls-1" d="M15,8A7,7,0,1,1,8,1,7,7,0,0,1,15,8ZM9.28,11.41c-.08-.08-.17-.17-.17-.25V7.32c0-.09.09-.17.17-.34a1.07,1.07,0,0,1,.17-.26s0-.09-.08-.09a4.63,4.63,0,0,0-1-.34c-.6-.08-1-.17-1.28-.17-.43,0-.6,0-.6.09a4.7,4.7,0,0,0,.17.51v4a.68.68,0,0,1-.17.51c-.17.17-.17.26-.17.26a2.1,2.1,0,0,0,1,.34A9.1,9.1,0,0,0,8.68,12h.26c.34-.08.43-.17.43-.42C9.45,11.59,9.45,11.5,9.28,11.41ZM8.51,4.07c-.6-.08-1-.17-1.28-.17a1.09,1.09,0,0,0-.6.34.75.75,0,0,0-.25.52c0,.08,0,.08.08.17a5.91,5.91,0,0,0,1.28.34c.86.25,1.28.34,1.37.25s.17-.17.26-.42a4.7,4.7,0,0,0,.17-.51V4.5A3,3,0,0,0,8.51,4.07Z"/></svg>