<svg id="Layer_1" data-name="Layer 1" xmlns="http://www.w3.org/2000/svg" viewBox="0 0 16 16"><defs><style>.cls-1{fill:#5ed116;}</style></defs><title>admonition-faq</title><path class="cls-1" d="M15,8A7,7,0,1,1,8,1,7,7,0,0,1,15,8ZM11.41,5.52a2.82,2.82,0,0,0-2-2.47,4.2,4.2,0,0,0-2,.08c-.51.09-1.28.17-1.53.52s.17.85.51,1.11c.51.34.94-.09,1.53-.26s2.57-.6,2.05.68C9.54,6.12,8.26,6.8,7.4,7.4a4.7,4.7,0,0,0-1,.86c-.43.51.08.85.6,1.19a.77.77,0,0,0,1-.08A8.21,8.21,0,0,1,9.37,8.26c.93-.6,2.13-1.37,2-2.74C11.24,4.41,11.41,6.12,11.41,5.52ZM9,11.33c-.25-.43-1.11-1.11-1.62-.94-.34.09-.34.34-.42.68-.09.17-.35.52-.26.69.08.34,1.28,1.11,1.62.85.09-.09.77-1.2.68-1.28S9.11,11.41,9,11.33Z"/></svg>