<svg id="Layer_1" data-name="Layer 1" xmlns="http://www.w3.org/2000/svg" viewBox="0 0 16 16"><defs><style>.cls-1{fill:#ff9001;}</style></defs><title>admonition-warning</title><path class="cls-1" d="M1.11,12.81,7.31,2.39a.81.81,0,0,1,1.38,0l6.2,10.42A.79.79,0,0,1,14.2,14H1.87A.8.8,0,0,1,1.11,12.81Zm8.11-3.2v-4a1.11,1.11,0,0,0-.53-.22,2.79,2.79,0,0,0-.77-.08H7.69c-.23.08-.38.15-.38.3V8.72A.68.68,0,0,0,7.16,9c-.08.23-.08.3,0,.38a5.72,5.72,0,0,0,.92.44,2.71,2.71,0,0,0,.92.23h.15c.15,0,.23-.15.23-.38C9.22,9.68,9.22,9.61,9.22,9.61Zm-.61,1a2.32,2.32,0,0,0-.92-.15c-.23,0-.3.08-.38.3v.67c0,.15,0,.22-.08.3s-.15.22-.07.3a2.86,2.86,0,0,0,.92.37,2.65,2.65,0,0,0,.84.15c.15,0,.3-.08.3-.23s.08-.29.08-.52a1.86,1.86,0,0,1,.08-.52V11C9.22,10.87,9,10.8,8.61,10.65Z"/></svg>