<svg id="Layer_1" data-name="Layer 1" xmlns="http://www.w3.org/2000/svg" viewBox="0 0 16 16"><defs><style>.cls-1{fill:#7940ff;}</style></defs><title>admonition-example</title><path class="cls-1" d="M5,2.7H15V4.57H5Z"/><path class="cls-1" d="M2.23,5.19A.15.15,0,0,1,2.08,5V3.48c-.08,0-.16,0-.16.08a3.07,3.07,0,0,1-.54.15H1.23c-.08,0-.08-.07-.08-.15V2.94a.28.28,0,0,1,.08-.16,1.48,1.48,0,0,0,.69-.31.8.8,0,0,0,.31-.39c0-.08.08-.08.15-.08H3a.16.16,0,0,1,.15.16V5A.15.15,0,0,1,3,5.19Z"/><path class="cls-1" d="M5,7.06H15V8.94H5Z"/><path class="cls-1" d="M1.15,9.64c-.07,0-.07,0-.07-.08s-.08-.08,0-.16a1.46,1.46,0,0,1,.3-.7,3.93,3.93,0,0,1,.77-.78c.23-.23.39-.31.39-.39s.08-.08.08-.15,0-.08-.08-.08a.28.28,0,0,0-.16-.08c-.07,0-.07,0-.15.08a.34.34,0,0,0-.08.23A.16.16,0,0,1,2,7.69l-.77-.08c-.08,0-.08,0-.08-.08V7.38a.92.92,0,0,1,.23-.63.86.86,0,0,1,.39-.31,4.1,4.1,0,0,1,.61-.08,1.7,1.7,0,0,1,.7.08,2,2,0,0,1,.46.31,1.12,1.12,0,0,1,.15.55,1.08,1.08,0,0,1-.15.54,1.49,1.49,0,0,1-.62.55c-.07.08-.15.08-.15.16h.77a.15.15,0,0,1,.15.15v.62a.16.16,0,0,1-.15.16H1.15Z"/><path class="cls-1" d="M5,11.43H15V13.3H5Z"/><path class="cls-1" d="M2.31,14a1.82,1.82,0,0,1-.69-.08,1.59,1.59,0,0,1-.47-.31A1.91,1.91,0,0,0,1,13.06v-.15a.08.08,0,0,1,.08-.08l.77-.08a.17.17,0,0,1,.15.16.34.34,0,0,0,.08.23.24.24,0,0,0,.15.08c.08,0,.08,0,.15-.08s.08-.08.08-.23a.26.26,0,0,0-.08-.23.24.24,0,0,0-.15-.08.56.56,0,0,0-.23.08H1.85c.07,0,.07-.08.07-.08v-.7l-.77-.16c-.07,0-.07,0-.07-.08v-.15A1.15,1.15,0,0,1,1.46,11a1.41,1.41,0,0,1,.85-.23,1.67,1.67,0,0,1,.92.23,1.11,1.11,0,0,1,.23.7.67.67,0,0,1-.08.39c0,.08-.07.08-.07.16s.23.15.31.31a.77.77,0,0,1,.07.39,1.37,1.37,0,0,1-.15.54.76.76,0,0,1-.46.39A1.22,1.22,0,0,1,2.31,14Zm-.08-2.1c.08,0,.08,0,.15-.08a.28.28,0,0,0,.08-.16v-.08H2.38c-.07,0-.07,0-.15.08a.35.35,0,0,0-.08.24V12C2.08,11.82,2.15,11.9,2.23,11.9Z"/></svg>