<svg id="Layer_1" data-name="Layer 1" xmlns="http://www.w3.org/2000/svg" viewBox="0 0 16 16"><defs><style>.cls-1,.cls-2,.cls-7{fill:#e5e7e9;}.cls-1{stroke:#5d656b;}.cls-1,.cls-2,.cls-6{stroke-miterlimit:10;}.cls-2,.cls-6{stroke:#7c878f;}.cls-2{stroke-width:0.19px;}.cls-3{fill:#f0f1f2;}.cls-4{fill:#c1272d;}.cls-5{fill:#5d656b;}.cls-6{fill:none;stroke-width:0.28px;}</style></defs><title>application-jekyll</title><circle class="cls-1" cx="8" cy="8" r="6"/><path class="cls-2" d="M8.82,4.22c0,.19-2.49,6.59-2.62,7a.84.84,0,0,0,.55,1c.42.19,1,.06,1.18-.26C8.63,10.2,10.5,5,10.5,5s.36-.14.36-.38-.48-.5-.72-.64-1-.37-1.26-.2S8.84,4.12,8.82,4.22Z"/><path class="cls-3" d="M8.79,4.08a1.62,1.62,0,0,1-.14.64s-2.12,5.59-2.4,6.34a1,1,0,0,0,.46,1.18,1.47,1.47,0,0,1-.09-.87c.73-1.85,2.51-6.62,2.51-6.62C9.06,4.92,8.79,4.08,8.79,4.08Z"/><path class="cls-4" d="M9.5,6.84c.22-.58-1.29,3.59-1.8,4.87a.73.73,0,0,1-.85.24.59.59,0,0,1-.34-.69c.33-.9,1-2.8,1.23-3.27S9.28,7.43,9.5,6.84Z"/><ellipse class="cls-5" cx="9.82" cy="4.3" rx="0.2" ry="0.74" transform="translate(2.03 11.66) rotate(-66.99)"/><path class="cls-6" d="M8.82,4.22c0,.19-2.49,6.59-2.62,7a.84.84,0,0,0,.55,1c.42.19,1,.06,1.18-.26C8.63,10.2,10.5,5,10.5,5s.36-.14.36-.38-.48-.5-.72-.64-1-.37-1.26-.2S8.84,4.12,8.82,4.22Z"/><circle class="cls-7" cx="8.09" cy="8.61" r="0.19"/><circle class="cls-7" cx="7.64" cy="9.61" r="0.11"/><circle class="cls-7" cx="8.21" cy="9.38" r="0.12"/><circle class="cls-7" cx="7.21" cy="10.62" r="0.23"/></svg>