<svg id="Layer_1" data-name="Layer 1" xmlns="http://www.w3.org/2000/svg" viewBox="0 0 16 16"><defs><style>.cls-1{fill:#cdd4d9;}.cls-1,.cls-3{stroke:#444;}.cls-1,.cls-2,.cls-3{stroke-miterlimit:10;}.cls-2,.cls-3{fill:none;}.cls-2{stroke:#f35d6f;stroke-linecap:round;stroke-width:0.75px;}.cls-3{stroke-width:0.66px;}.cls-4{fill:#444;}</style></defs><title>application-githublink</title><circle class="cls-1" cx="8.09" cy="9.13" r="6"/><path class="cls-2" d="M4,3.58H3.3A1.39,1.39,0,0,1,1.91,2.19h0A1.38,1.38,0,0,1,3.3.81h3A1.39,1.39,0,0,1,7.73,2.19h0A1.39,1.39,0,0,1,6.34,3.58"/><path class="cls-2" d="M9.05,2.28h.49a1.39,1.39,0,0,1,1.39,1.39h0A1.39,1.39,0,0,1,9.54,5.05h-3A1.38,1.38,0,0,1,5.11,3.67h0A1.39,1.39,0,0,1,6.5,2.28"/><ellipse class="cls-3" cx="8.15" cy="9.81" rx="3.38" ry="1.68"/><ellipse class="cls-4" cx="7.15" cy="9.82" rx="0.43" ry="0.38"/><ellipse class="cls-4" cx="9.2" cy="9.82" rx="0.43" ry="0.38"/><polygon class="cls-4" points="5.11 9.03 5.11 5.92 7.14 7.23 9.19 7.23 11.19 5.42 11.19 8.95 9.62 8.21 7.04 8.13 5.11 9.03"/><path class="cls-4" d="M7.94,11.78h.41a.88.88,0,0,1,.88.88v2a0,0,0,0,1,0,0H7.06a0,0,0,0,1,0,0v-2A.88.88,0,0,1,7.94,11.78Z"/><path class="cls-4" d="M7,13.81a5.94,5.94,0,0,1-2.35-1.66c-.42-.73,0-.94.43-.32A3.33,3.33,0,0,0,6.48,13c.55.31.55.2.55.2Z"/></svg>