<svg id="Layer_1" data-name="Layer 1" xmlns="http://www.w3.org/2000/svg" xmlns:xlink="http://www.w3.org/1999/xlink" viewBox="0 0 16 16"><defs><style>.cls-1{opacity:0.5;}.cls-2{fill:#f2f2f2;}.cls-3{fill:url(#Logo_Light);}.cls-4{fill:url(#Logo_Light-2);}.cls-5{fill:url(#Logo_Light-3);}.cls-6{fill:url(#Logo_Light-4);}.cls-7{fill:url(#Logo_Light-5);}</style><linearGradient id="Logo_Light" x1="2.96" y1="3.24" x2="8.49" y2="12.82" gradientUnits="userSpaceOnUse"><stop offset="0" stop-color="#d91c5c"/><stop offset="0.21" stop-color="#d41d60"/><stop offset="0.47" stop-color="#c51f6a"/><stop offset="0.75" stop-color="#ad237a"/><stop offset="1" stop-color="#90278e"/></linearGradient><linearGradient id="Logo_Light-2" x1="29.92" y1="9.34" x2="35.77" y2="20.99" gradientTransform="translate(-22.87 -5.68) rotate(-3.36)" xlink:href="#Logo_Light"/><linearGradient id="Logo_Light-3" x1="19.04" y1="8.7" x2="23.39" y2="16.91" gradientTransform="translate(-14.55 -4.8) rotate(-2.1)" xlink:href="#Logo_Light"/><linearGradient id="Logo_Light-4" x1="18.82" y1="8.21" x2="23.02" y2="16.08" gradientTransform="translate(-13.54 -4.27) rotate(-1.94)" xlink:href="#Logo_Light"/><linearGradient id="Logo_Light-5" x1="4.49" y1="1.94" x2="11.49" y2="14.07" xlink:href="#Logo_Light"/></defs><title>application-markdown-hidden</title><g class="cls-1"><circle class="cls-2" cx="8" cy="8" r="7"/><path class="cls-3" d="M6.16,9.87a18.11,18.11,0,0,0-3.2.9A11,11,0,0,1,6.64,2.08,16,16,0,0,0,5.77,6,15.71,15.71,0,0,0,6.16,9.87Z"/><path class="cls-4" d="M13.9,8.21S9.42,6,8.36,2.57c0,0,0,0,0,0a19.52,19.52,0,0,0,1.29,7.57S13.9,8.21,13.9,8.21Z"/><polygon class="cls-5" points="6.47 2.01 7.03 11.83 7.73 11.53 6.79 1.88 6.47 2.01"/><polygon class="cls-6" points="8.11 2.26 7.02 11.78 7.68 11.84 8.38 2.25 8.11 2.26"/><path class="cls-7" d="M8,15a7,7,0,0,1-5.92-3.26l-.29-.46,12.41,0-.29.46A7,7,0,0,1,8,15ZM2.15,10.6A6.26,6.26,0,0,1,1.6,8a6.4,6.4,0,1,1,12.26,2.58s.63,0,.67-.06A7,7,0,1,0,1,8a6.86,6.86,0,0,0,.48,2.54C1.52,10.64,2.15,10.6,2.15,10.6Z"/></g></svg>