<svg id="Layer_1" data-name="Layer 1" xmlns="http://www.w3.org/2000/svg" viewBox="0 0 16 16"><defs><style>.cls-1{fill:#4d4d4d;}.cls-1,.cls-3{stroke:#ccc;}.cls-1,.cls-2,.cls-3{stroke-miterlimit:10;}.cls-2,.cls-3{fill:none;}.cls-2{stroke:#cc3a4f;stroke-linecap:round;stroke-width:0.75px;}.cls-3{stroke-width:0.66px;}.cls-4{fill:#ccc;}</style></defs><title>application-githublink_dark</title><circle class="cls-1" cx="8.09" cy="9.16" r="6"/><path class="cls-2" d="M4,3.61H3.3A1.38,1.38,0,0,1,1.91,2.23h0A1.39,1.39,0,0,1,3.3.84h3A1.39,1.39,0,0,1,7.73,2.23h0A1.39,1.39,0,0,1,6.34,3.61"/><path class="cls-2" d="M9.05,2.31h.49A1.39,1.39,0,0,1,10.93,3.7h0A1.39,1.39,0,0,1,9.54,5.08h-3A1.38,1.38,0,0,1,5.11,3.7h0A1.39,1.39,0,0,1,6.5,2.31"/><ellipse class="cls-3" cx="8.15" cy="9.84" rx="3.38" ry="1.68"/><ellipse class="cls-4" cx="7.15" cy="9.85" rx="0.43" ry="0.38"/><ellipse class="cls-4" cx="9.2" cy="9.85" rx="0.43" ry="0.38"/><polygon class="cls-4" points="5.11 9.06 5.11 5.95 7.14 7.26 9.19 7.26 11.19 5.46 11.19 8.99 9.62 8.25 7.04 8.16 5.11 9.06"/><path class="cls-4" d="M7.94,11.81h.41a.88.88,0,0,1,.88.88v2a0,0,0,0,1,0,0H7.06a0,0,0,0,1,0,0v-2A.88.88,0,0,1,7.94,11.81Z"/><path class="cls-4" d="M7,13.84a5.9,5.9,0,0,1-2.35-1.65c-.42-.73,0-.95.43-.33A3.33,3.33,0,0,0,6.48,13c.55.31.55.2.55.2Z"/></svg>