<svg id="Layer_1" data-name="Layer 1" xmlns="http://www.w3.org/2000/svg" viewBox="0 0 16 16"><defs><style>.cls-1{fill:#993d97;}.cls-2{fill:none;stroke:#bf4c5d;stroke-linecap:round;stroke-miterlimit:10;stroke-width:0.75px;}</style></defs><title>application-custom-link_dark</title><path class="cls-1" d="M5,14,9.41,6.58a.58.58,0,0,1,1,0L14.83,14a.57.57,0,0,1-.49.85H5.53A.58.58,0,0,1,5,14Zm5.8-2.29V8.86a.93.93,0,0,0-.38-.16,2.24,2.24,0,0,0-.55,0H9.69c-.17,0-.28.11-.28.21V11.1a.64.64,0,0,0-.11.21c-.05.16-.05.21,0,.26a3.39,3.39,0,0,0,.66.32,1.83,1.83,0,0,0,.66.16h.11c.11,0,.16-.1.16-.26C10.78,11.79,10.78,11.73,10.78,11.73Zm-.44.75a1.59,1.59,0,0,0-.65-.11c-.17,0-.22.06-.28.21v.48c0,.11,0,.16-.05.22s-.11.16-.06.21a2.12,2.12,0,0,0,.66.26,1.88,1.88,0,0,0,.6.11c.11,0,.22,0,.22-.16s.06-.21.06-.37a1.48,1.48,0,0,1,.05-.37v-.27Z"/><path class="cls-2" d="M3.06,4H2.39A1.39,1.39,0,0,1,1,2.56H1A1.39,1.39,0,0,1,2.39,1.17h3A1.4,1.4,0,0,1,6.82,2.56h0A1.4,1.4,0,0,1,5.43,4"/><path class="cls-2" d="M8.14,2.64h.49A1.4,1.4,0,0,1,10,4h0A1.4,1.4,0,0,1,8.63,5.42h-3A1.4,1.4,0,0,1,4.2,4h0A1.4,1.4,0,0,1,5.59,2.64"/></svg>