<svg id="Layer_1" data-name="Layer 1" xmlns="http://www.w3.org/2000/svg" xmlns:xlink="http://www.w3.org/1999/xlink" viewBox="0 0 16 16"><defs><style>.cls-1{fill:url(#linear-gradient);}.cls-2{fill:#007236;}.cls-3,.cls-5{fill:#a3d39c;}.cls-4{fill:#363636;}.cls-5{stroke:#007236;stroke-miterlimit:10;stroke-width:0.75px;}.cls-6{font-size:5.25px;font-family:ZapfDingbatsITC, Zapf Dingbats;}</style><linearGradient id="linear-gradient" x1="3.98" y1="3.53" x2="13.75" y2="13.3" gradientUnits="userSpaceOnUse"><stop offset="0" stop-color="#b4c3cb"/><stop offset="0.21" stop-color="#acbac2"/><stop offset="0.55" stop-color="#97a3aa"/><stop offset="0.98" stop-color="#747d82"/><stop offset="1" stop-color="#727b80"/></linearGradient></defs><title>application-flexmark-spec</title><path class="cls-1" d="M7.55,5.44l0-4.39H13v13H3V5.44ZM3,4.51H6.64V1.05Z"/><rect class="cls-2" x="1" y="7.1" width="14" height="6" rx="3"/><path class="cls-3" d="M4,12.6a2.5,2.5,0,0,1,0-5h8a2.5,2.5,0,0,1,0,5Z"/><path class="cls-4" d="M5.59,9.31,5.12,11.4A7.17,7.17,0,0,1,4,14.11,2.18,2.18,0,0,1,2.21,15a1.27,1.27,0,0,1-.81-.21.63.63,0,0,1-.25-.51.59.59,0,0,1,.2-.46.65.65,0,0,1,.46-.18.58.58,0,0,1,.62.58c0,.2.12.29.26.29s.28-.13.4-.39a10,10,0,0,0,.44-1.58l.14-.68a3.81,3.81,0,0,0,.09-.38l.48-2.17H3.63l.16-.52h.55a4.53,4.53,0,0,1,1-2.12,2,2,0,0,1,1.4-.52,1.7,1.7,0,0,1,.89.21A.62.62,0,0,1,8,6.92a.6.6,0,0,1-.17.41.57.57,0,0,1-.42.17C7.16,7.5,7,7.33,6.78,7s-.27-.39-.4-.39S6.1,6.8,6,7.22L5.71,8.79h.7l-.16.52Z"/><circle class="cls-5" cx="11.5" cy="10.35" r="3.5"/><text class="cls-6" transform="translate(9.39 12.52)">✔︎</text></svg>