<svg id="Layer_1" data-name="Layer 1" xmlns="http://www.w3.org/2000/svg" xmlns:xlink="http://www.w3.org/1999/xlink" viewBox="0 0 16 16"><defs><style>.cls-1{fill:url(#linear-gradient);}.cls-2{fill:url(#linear-gradient-2);}.cls-3{fill:url(#linear-gradient-3);}.cls-4{fill:#f2f2f2;}.cls-5{fill:url(#Logo_Light);}.cls-6{fill:url(#Logo_Light-2);}.cls-7{fill:url(#Logo_Light-3);}.cls-8{fill:url(#Logo_Light-4);}.cls-9{fill:url(#Logo_Light-5);}</style><linearGradient id="linear-gradient" x1="6.97" y1="7.1" x2="15.23" y2="15.37" gradientUnits="userSpaceOnUse"><stop offset="0" stop-color="#b4c3cb"/><stop offset="0.21" stop-color="#acbac2"/><stop offset="0.55" stop-color="#97a3aa"/><stop offset="0.98" stop-color="#747d82"/><stop offset="1" stop-color="#727b80"/></linearGradient><linearGradient id="linear-gradient-2" x1="4.47" y1="5.1" x2="12.73" y2="13.37" xlink:href="#linear-gradient"/><linearGradient id="linear-gradient-3" x1="1.93" y1="2.99" x2="10.19" y2="11.25" xlink:href="#linear-gradient"/><linearGradient id="Logo_Light" x1="7.4" y1="7.6" x2="11.35" y2="14.44" gradientUnits="userSpaceOnUse"><stop offset="0" stop-color="#d91c5c"/><stop offset="0.21" stop-color="#d41d60"/><stop offset="0.47" stop-color="#c51f6a"/><stop offset="0.75" stop-color="#ad237a"/><stop offset="1" stop-color="#90278e"/></linearGradient><linearGradient id="Logo_Light-2" x1="32.84" y1="11.91" x2="37.01" y2="20.24" gradientTransform="translate(-22.8 -3.33) rotate(-3.36)" xlink:href="#Logo_Light"/><linearGradient id="Logo_Light-3" x1="22.82" y1="11.75" x2="25.93" y2="17.62" gradientTransform="translate(-14.53 -3.33) rotate(-2.1)" xlink:href="#Logo_Light"/><linearGradient id="Logo_Light-4" x1="22.39" y1="11.32" x2="25.39" y2="16.95" gradientTransform="translate(-13.51 -2.92) rotate(-1.94)" xlink:href="#Logo_Light"/><linearGradient id="Logo_Light-5" x1="11" y1="-25.64" x2="16.75" y2="-15.68" gradientTransform="translate(-1.07 28.97) scale(0.87)" xlink:href="#Logo_Light"/></defs><title>application-markdown-multi</title><path class="cls-1" d="M10,8.71,10,5H14.6V16H6.13V8.71ZM6.13,7.93H9.22V5Z"/><path class="cls-2" d="M7.48,6.71,7.45,3H12.1V14H3.63V6.71ZM3.63,5.93H6.72V3Z"/><path class="cls-3" d="M5,4.6l0-3.72H9.56v11H1.1V4.6ZM1.1,3.82H4.18V.88Z"/><circle class="cls-4" cx="11" cy="11" r="5"/><path class="cls-5" d="M9.68,12.34A12.65,12.65,0,0,0,7.4,13,7.84,7.84,0,0,1,10,6.77a11.25,11.25,0,0,0-.62,2.78A11.48,11.48,0,0,0,9.68,12.34Z"/><path class="cls-6" d="M15.22,11.15s-3.21-1.58-4-4c0,0,0,0,0,0a13.9,13.9,0,0,0,.92,5.4Z"/><polygon class="cls-7" points="9.91 6.72 10.3 13.73 10.81 13.53 10.13 6.63 9.91 6.72"/><polygon class="cls-8" points="11.08 6.9 10.3 13.7 10.77 13.74 11.27 6.89 11.08 6.9"/><path class="cls-9" d="M11,16a5,5,0,0,1-4.23-2.33l-.2-.33h8.86l-.21.33A5,5,0,0,1,11,16ZM6.82,12.86A4.57,4.57,0,1,1,15.57,11a4.63,4.63,0,0,1-.38,1.84s.45,0,.48,0A5,5,0,1,0,6,11a4.9,4.9,0,0,0,.34,1.82C6.37,12.89,6.82,12.86,6.82,12.86Z"/></svg>