<svg id="Layer_1" data-name="Layer 1" xmlns="http://www.w3.org/2000/svg" viewBox="0 0 16 16"><defs><style>.cls-1{fill:#d0d0f0;}.cls-1,.cls-4{stroke:#7f47dd;}.cls-1,.cls-2,.cls-4{stroke-miterlimit:10;}.cls-2,.cls-4{fill:none;}.cls-2{stroke:#f35d6f;stroke-linecap:round;stroke-width:0.75px;}.cls-3{opacity:0.99;}.cls-4{stroke-width:1.5px;}.cls-5{fill:#7f47dd;}</style></defs><title>application-ftplink</title><rect class="cls-1" x="8.12" y="3.59" width="6.37" height="11.5"/><path class="cls-2" d="M3.21,3.69H2.54A1.39,1.39,0,0,1,1.16,2.3h0A1.39,1.39,0,0,1,2.54.91H5.59A1.39,1.39,0,0,1,7,2.3H7A1.39,1.39,0,0,1,5.59,3.69"/><path class="cls-2" d="M8.3,2.38h.49a1.39,1.39,0,0,1,1.38,1.39h0A1.39,1.39,0,0,1,8.79,5.16h-3A1.39,1.39,0,0,1,4.36,3.77h0A1.39,1.39,0,0,1,5.75,2.38"/><g class="cls-3"><line class="cls-4" x1="1.16" y1="8.08" x2="4.28" y2="8.08"/><polygon class="cls-5" points="3.73 9.95 6.97 8.08 3.73 6.21 3.73 9.95"/></g><g class="cls-3"><line class="cls-4" x1="6.97" y1="13.18" x2="3.85" y2="13.18"/><polygon class="cls-5" points="4.39 11.31 1.16 13.18 4.39 15.05 4.39 11.31"/></g></svg>