<svg id="Layer_1" data-name="Layer 1" xmlns="http://www.w3.org/2000/svg" viewBox="0 0 16 16"><defs><style>.cls-1{fill:#d0d0f0;}.cls-1,.cls-3{stroke:#a0a0e0;}.cls-1,.cls-2,.cls-3{stroke-miterlimit:10;}.cls-2,.cls-3{fill:none;}.cls-2{stroke:#f35d6f;stroke-linecap:round;stroke-width:0.75px;}.cls-3{stroke-width:1.06px;}</style></defs><title>application-maillink</title><rect class="cls-1" x="1.3" y="5.64" width="13.45" height="9.32"/><path class="cls-2" d="M3.47,4H2.8A1.38,1.38,0,0,1,1.42,2.61h0A1.38,1.38,0,0,1,2.8,1.22h3A1.39,1.39,0,0,1,7.23,2.61h0A1.38,1.38,0,0,1,5.84,4"/><path class="cls-2" d="M8.56,2.69h.49a1.38,1.38,0,0,1,1.38,1.39h0A1.38,1.38,0,0,1,9.05,5.46H6A1.38,1.38,0,0,1,4.62,4.08h0A1.38,1.38,0,0,1,6,2.69"/><polyline class="cls-3" points="1.25 5.64 7.97 10.88 14.7 5.64"/></svg>