<svg id="Layer_1" data-name="Layer 1" xmlns="http://www.w3.org/2000/svg" xmlns:xlink="http://www.w3.org/1999/xlink" viewBox="0 0 16 16"><defs><style>.cls-1{opacity:0.5;}.cls-2{fill:url(#linear-gradient);}.cls-3{fill:#333;}.cls-4{fill:url(#Logo_Dark);}.cls-5{fill:url(#Logo_Dark-2);}.cls-6{fill:url(#Logo_Dark-3);}.cls-7{fill:url(#Logo_Dark-4);}.cls-8{fill:url(#Logo_Dark-5);}</style><linearGradient id="linear-gradient" x1="3.04" y1="4.76" x2="12.78" y2="14.5" gradientTransform="translate(0.46 -0.18) rotate(0.15)" gradientUnits="userSpaceOnUse"><stop offset="0" stop-color="#82929a"/><stop offset="0.26" stop-color="#7e8d95"/><stop offset="0.58" stop-color="#717f86"/><stop offset="0.92" stop-color="#5c686e"/><stop offset="1" stop-color="#566267"/></linearGradient><linearGradient id="Logo_Dark" x1="6.11" y1="6.34" x2="10.65" y2="14.21" gradientUnits="userSpaceOnUse"><stop offset="0" stop-color="#d94b7b"/><stop offset="0.37" stop-color="#d14e8f"/><stop offset="1" stop-color="#bf56bb"/></linearGradient><linearGradient id="Logo_Dark-2" x1="30.85" y1="13.95" x2="35.65" y2="23.52" gradientTransform="translate(-21.73 -6.88) rotate(-3.36)" xlink:href="#Logo_Dark"/><linearGradient id="Logo_Dark-3" x1="21" y1="12.63" x2="24.57" y2="19.38" gradientTransform="translate(-13.83 -5.55) rotate(-2.1)" xlink:href="#Logo_Dark"/><linearGradient id="Logo_Dark-4" x1="20.71" y1="12.05" x2="24.16" y2="18.52" gradientTransform="translate(-12.87 -4.96) rotate(-1.94)" xlink:href="#Logo_Dark"/><linearGradient id="Logo_Dark-5" x1="7.37" y1="5.28" x2="13.12" y2="15.24" xlink:href="#Logo_Dark"/></defs><title>application-wikipage-hidden_dark</title><g class="cls-1"><path class="cls-2" d="M7,6.49,7,2.11l5.47,0,0,13-10,0,0-8.6ZM2.51,5.56H6.14V2.11Z"/><circle class="cls-3" cx="10.25" cy="10.25" r="5.75"/><path class="cls-4" d="M8.74,11.79a13.82,13.82,0,0,0-2.63.74,9.08,9.08,0,0,1,3-7.15,13.22,13.22,0,0,0-.71,3.21A12.58,12.58,0,0,0,8.74,11.79Z"/><path class="cls-5" d="M15.1,10.43s-3.69-1.82-4.56-4.64c0,0,0,0,0,0A16.09,16.09,0,0,0,11.58,12S15.1,10.43,15.1,10.43Z"/><polygon class="cls-6" points="8.99 5.33 9.45 13.39 10.03 13.15 9.25 5.22 8.99 5.33"/><polygon class="cls-7" points="10.34 5.54 9.45 13.36 9.99 13.4 10.56 5.53 10.34 5.54"/><path class="cls-8" d="M10.25,16a5.72,5.72,0,0,1-4.86-2.68L5.15,13H15.34l-.24.38A5.73,5.73,0,0,1,10.25,16ZM5.44,12.39a5.26,5.26,0,1,1,10.07-2.14,5.14,5.14,0,0,1-.45,2.12s.52,0,.56,0A5.75,5.75,0,1,0,4.5,10.25a5.74,5.74,0,0,0,.39,2.09C4.92,12.42,5.44,12.39,5.44,12.39Z"/></g></svg>