<svg id="Layer_1" data-name="Layer 1" xmlns="http://www.w3.org/2000/svg" xmlns:xlink="http://www.w3.org/1999/xlink" viewBox="0 0 16 16"><defs><style>.cls-1{fill:url(#linear-gradient);}.cls-2{fill:#65b359;}.cls-3,.cls-5{fill:#007236;}.cls-4,.cls-6{fill:#ccc;}.cls-5{stroke:#65b359;stroke-miterlimit:10;stroke-width:0.75px;}.cls-6{font-size:5.25px;font-family:ZapfDingbatsITC, Zapf Dingbats;}</style><linearGradient id="linear-gradient" x1="4.91" y1="3.8" x2="14.66" y2="13.55" gradientTransform="translate(-0.92 -0.29) rotate(0.15)" gradientUnits="userSpaceOnUse"><stop offset="0" stop-color="#82929a"/><stop offset="0.26" stop-color="#7e8d95"/><stop offset="0.58" stop-color="#717f86"/><stop offset="0.92" stop-color="#5c686e"/><stop offset="1" stop-color="#566267"/></linearGradient></defs><title>application-flexmark-spec_dark</title><path class="cls-1" d="M7.54,5.44l0-4.39,5.47,0,0,13L3,14,3,5.42ZM3,4.5H6.63V1.05Z"/><rect class="cls-2" x="1" y="7.05" width="14" height="6" rx="3"/><path class="cls-3" d="M4,12.55a2.5,2.5,0,0,1,0-5h8a2.5,2.5,0,0,1,0,5Z"/><path class="cls-4" d="M5.59,9.25l-.47,2.1A7.17,7.17,0,0,1,4,14.06,2.18,2.18,0,0,1,2.21,15a1.27,1.27,0,0,1-.81-.21.63.63,0,0,1-.25-.51.59.59,0,0,1,.2-.46.65.65,0,0,1,.46-.18.58.58,0,0,1,.62.58c0,.19.12.29.26.29s.28-.13.4-.39a9.92,9.92,0,0,0,.44-1.59l.14-.67a3.88,3.88,0,0,0,.09-.39l.48-2.17H3.63l.16-.51h.55a4.53,4.53,0,0,1,1-2.12,2,2,0,0,1,1.4-.53,1.7,1.7,0,0,1,.89.21A.64.64,0,0,1,8,6.87a.56.56,0,0,1-.17.4.54.54,0,0,1-.42.18c-.25,0-.46-.17-.63-.52s-.27-.39-.4-.39-.28.21-.36.62L5.71,8.74h.7l-.16.51Z"/><circle class="cls-5" cx="11.5" cy="10.3" r="3.5"/><text class="cls-6" transform="translate(9.39 12.47)">✔︎</text></svg>