<svg id="Layer_1" data-name="Layer 1" xmlns="http://www.w3.org/2000/svg" viewBox="0 0 16 16"><defs><style>.cls-1{fill:#6d6db5;}.cls-1,.cls-4{stroke:#b391eb;}.cls-1,.cls-2,.cls-4{stroke-miterlimit:10;}.cls-2,.cls-4{fill:none;}.cls-2{stroke:#cc3a4f;stroke-linecap:round;stroke-width:0.75px;}.cls-3{opacity:0.99;}.cls-4{stroke-width:1.5px;}.cls-5{fill:#b391eb;}</style></defs><title>application-ftplink_dark</title><rect class="cls-1" x="7.91" y="3.59" width="6.37" height="11.5"/><path class="cls-2" d="M3,3.69H2.34A1.4,1.4,0,0,1,1,2.3H1A1.4,1.4,0,0,1,2.34.91h3A1.39,1.39,0,0,1,6.77,2.3h0A1.39,1.39,0,0,1,5.38,3.69"/><path class="cls-2" d="M8.1,2.38h.48A1.39,1.39,0,0,1,10,3.77h0A1.39,1.39,0,0,1,8.58,5.16h-3A1.4,1.4,0,0,1,4.15,3.77h0A1.4,1.4,0,0,1,5.54,2.38"/><g class="cls-3"><line class="cls-4" x1="0.95" y1="8.08" x2="4.08" y2="8.08"/><polygon class="cls-5" points="3.53 9.95 6.77 8.08 3.53 6.21 3.53 9.95"/></g><g class="cls-3"><line class="cls-4" x1="6.77" y1="13.18" x2="3.64" y2="13.18"/><polygon class="cls-5" points="4.19 11.31 0.95 13.18 4.19 15.05 4.19 11.31"/></g></svg>