<svg id="Layer_1" data-name="Layer 1" xmlns="http://www.w3.org/2000/svg" viewBox="0 0 16 16"><defs><style>.cls-1{fill:none;stroke:#f35d6f;stroke-linecap:round;stroke-miterlimit:10;stroke-width:1.09px;}</style></defs><title>application-unknown</title><path class="cls-1" d="M4.43,9h-1a2,2,0,0,1-2-2h0a2,2,0,0,1,2-2H7.88a2,2,0,0,1,2,2h0a2,2,0,0,1-2,2"/><path class="cls-1" d="M11.84,7.05h.71a2,2,0,0,1,2,2h0a2,2,0,0,1-2,2H8.12a2,2,0,0,1-2-2h0a2,2,0,0,1,2-2"/><path class="cls-1" d="M4.43,9h-1a2,2,0,0,1-2-2h0a2,2,0,0,1,2-2H7.88a2,2,0,0,1,2,2h0a2,2,0,0,1-2,2"/><path class="cls-1" d="M11.84,7.05h.71a2,2,0,0,1,2,2h0a2,2,0,0,1-2,2H8.12a2,2,0,0,1-2-2h0a2,2,0,0,1,2-2"/></svg>