<svg id="Layer_1" data-name="Layer 1" xmlns="http://www.w3.org/2000/svg" xmlns:xlink="http://www.w3.org/1999/xlink" viewBox="0 0 16 16"><defs><style>.cls-1{fill:url(#linear-gradient);}.cls-2{fill:#bf4c5d;}.cls-3{fill:#4c383d;}</style><linearGradient id="linear-gradient" x1="4.41" y1="4.86" x2="14.15" y2="14.6" gradientTransform="translate(-0.39 -0.39) rotate(0.15)" gradientUnits="userSpaceOnUse"><stop offset="0" stop-color="#82929a"/><stop offset="0.26" stop-color="#7e8d95"/><stop offset="0.58" stop-color="#717f86"/><stop offset="0.92" stop-color="#5c686e"/><stop offset="1" stop-color="#566267"/></linearGradient></defs><title>application-wikipage1_dark</title><path class="cls-1" d="M7.56,6.38,7.53,2,13,2l0,13L3,15l0-8.6ZM3,5.45H6.65V2Z"/><path class="cls-2" d="M13.1,15.1H9c-.35,0-1,.9-1,.9s-.65-.9-1-.9H2.9A1.82,1.82,0,0,1,1,13.39V8.71A1.82,1.82,0,0,1,2.9,7H7c.35,0,1,.9,1,.9S8.65,7,9,7h4.1A1.82,1.82,0,0,1,15,8.71v4.68A1.82,1.82,0,0,1,13.1,15.1Z"/><path class="cls-3" d="M8,14.59a1.48,1.48,0,0,0-1-.39H2.9a.85.85,0,0,1-.9-.81V8.71a.85.85,0,0,1,.9-.81H6.74a3.37,3.37,0,0,1,.42.49L8,9.7l.84-1.31a4.26,4.26,0,0,1,.42-.49H13.1a.85.85,0,0,1,.9.81v4.68a.85.85,0,0,1-.9.81H9A1.48,1.48,0,0,0,8,14.59Z"/><rect class="cls-2" x="3" y="8.8" width="3" height="0.9"/><rect class="cls-2" x="10" y="8.8" width="3" height="0.9" transform="translate(23 18.5) rotate(-180)"/><rect class="cls-2" x="3" y="10.6" width="3" height="0.9"/><rect class="cls-2" x="10" y="10.6" width="3" height="0.9" transform="translate(23 22.1) rotate(-180)"/><rect class="cls-2" x="3" y="12.4" width="3" height="0.9"/><rect class="cls-2" x="10" y="12.4" width="3" height="0.9" transform="translate(23 25.7) rotate(-180)"/><rect class="cls-2" x="7.5" y="7.9" width="1" height="7.2"/></svg>