<svg id="Layer_1" data-name="Layer 1" xmlns="http://www.w3.org/2000/svg" xmlns:xlink="http://www.w3.org/1999/xlink" viewBox="0 0 16 16"><defs><style>.cls-1{fill:none;}.cls-2{fill:url(#Logo_Light);}.cls-3{fill:url(#Logo_Light-2);}.cls-4{fill:url(#Logo_Light-3);}.cls-5{fill:url(#Logo_Light-4);}.cls-6{fill:url(#Logo_Light-5);}.cls-7{fill:#6e6e6e;}</style><linearGradient id="Logo_Light" x1="2.4" y1="2.6" x2="6.35" y2="9.44" gradientUnits="userSpaceOnUse"><stop offset="0" stop-color="#d91c5c"/><stop offset="0.21" stop-color="#d41d60"/><stop offset="0.47" stop-color="#c51f6a"/><stop offset="0.75" stop-color="#ad237a"/><stop offset="1" stop-color="#90278e"/></linearGradient><linearGradient id="Logo_Light-2" x1="-1.08" y1="3.43" x2="3.1" y2="11.75" gradientTransform="translate(6.56 -1.85) rotate(-3.36)" xlink:href="#Logo_Light"/><linearGradient id="Logo_Light-3" x1="-0.29" y1="4.76" x2="2.82" y2="10.63" gradientTransform="translate(3.82 -2.2) rotate(-2.1)" xlink:href="#Logo_Light"/><linearGradient id="Logo_Light-4" x1="0.63" y1="4.51" x2="3.63" y2="10.13" gradientTransform="translate(3.47 -1.85) rotate(-1.94)" xlink:href="#Logo_Light"/><linearGradient id="Logo_Light-5" x1="3.49" y1="1.67" x2="8.5" y2="10.34" xlink:href="#Logo_Light"/></defs><title>editor_action-suspend-license</title><circle class="cls-1" cx="6" cy="6" r="5"/><path class="cls-2" d="M4.68,7.34A12.65,12.65,0,0,0,2.4,8,7.84,7.84,0,0,1,5,1.77a11.25,11.25,0,0,0-.62,2.78A11.48,11.48,0,0,0,4.68,7.34Z"/><path class="cls-3" d="M10.22,6.15s-3.21-1.58-4-4c0,0,0,0,0,0a13.9,13.9,0,0,0,.92,5.4Z"/><polygon class="cls-4" points="4.91 1.72 5.3 8.73 5.81 8.53 5.13 1.63 4.91 1.72"/><polygon class="cls-5" points="6.08 1.9 5.3 8.7 5.77 8.74 6.27 1.89 6.08 1.9"/><path class="cls-6" d="M6,11A5,5,0,0,1,1.77,8.67l-.2-.33h8.86l-.21.33A5,5,0,0,1,6,11ZM1.82,7.86A4.57,4.57,0,1,1,10.57,6a4.63,4.63,0,0,1-.38,1.84s.45,0,.48,0A5,5,0,1,0,1,6a4.9,4.9,0,0,0,.34,1.82C1.37,7.89,1.82,7.86,1.82,7.86Z"/><rect class="cls-7" x="7" y="10.3" width="8" height="4.7"/><path class="cls-7" d="M10.5,7.18c-.83,0-1.5.48-1.5,1.09v2.51c0,.61.67,1.1,1.5,1.1s1.5-.49,1.5-1.1V8.27C12,7.66,11.33,7.18,10.5,7.18ZM14,8.46v1.88A2.67,2.67,0,0,1,11.56,13C9.66,13.28,8,12.14,8,10.7V8.35C8,6.91,9.66,5.77,11.56,6A2.63,2.63,0,0,1,14,8.46Z"/></svg>