<svg id="Layer_1" data-name="Layer 1" xmlns="http://www.w3.org/2000/svg" xmlns:xlink="http://www.w3.org/1999/xlink" viewBox="0 0 16 16"><defs><style>.cls-1{fill:#333;}.cls-2{fill:url(#Logo_Dark);}.cls-3{fill:url(#Logo_Dark-2);}.cls-4{fill:url(#Logo_Dark-3);}.cls-5{fill:url(#Logo_Dark-4);}.cls-6{fill:url(#Logo_Dark-5);}</style><linearGradient id="Logo_Dark" x1="2.72" y1="3.38" x2="6.43" y2="9.82" gradientUnits="userSpaceOnUse"><stop offset="0" stop-color="#d94b7b"/><stop offset="0.37" stop-color="#d14e8f"/><stop offset="1" stop-color="#bf56bb"/></linearGradient><linearGradient id="Logo_Dark-2" x1="8.05" y1="1.98" x2="12.43" y2="9.58" xlink:href="#Logo_Dark"/><linearGradient id="Logo_Dark-3" x1="4.23" y1="2.33" x2="9.3" y2="11.11" xlink:href="#Logo_Dark"/><linearGradient id="Logo_Dark-4" x1="5.42" y1="3" x2="10.04" y2="11" xlink:href="#Logo_Dark"/><linearGradient id="Logo_Dark-5" x1="3.99" y1="1.08" x2="11.99" y2="14.94" xlink:href="#Logo_Dark"/></defs><title>pluginIcon_dark</title><circle class="cls-1" cx="8" cy="8" r="8"/><path class="cls-2" d="M5.89,10.14a19.85,19.85,0,0,0-3.65,1,12.59,12.59,0,0,1,4.2-9.94,18.17,18.17,0,0,0-1,4.46A18,18,0,0,0,5.89,10.14Z"/><path class="cls-3" d="M14.75,8.24S9.62,5.71,8.41,1.79a0,0,0,0,0,0,0,22.55,22.55,0,0,0,1.47,8.66S14.75,8.24,14.75,8.24Z"/><polygon class="cls-4" points="6.25 1.16 6.89 12.37 7.69 12.04 6.61 1.01 6.25 1.16"/><polygon class="cls-5" points="8.13 1.44 6.88 12.32 7.64 12.39 8.44 1.43 8.13 1.44"/><path class="cls-6" d="M8,16a8,8,0,0,1-6.76-3.72l-.33-.53,14.18,0-.34.52A8,8,0,0,1,8,16ZM1.31,11A7.32,7.32,0,0,1,8,.68,7.34,7.34,0,0,1,15.32,8,7.26,7.26,0,0,1,14.7,11s.72,0,.77-.07A8,8,0,0,0,8,0,8,8,0,0,0,.54,10.91C.59,11,1.31,11,1.31,11Z"/></svg>