<svg id="Layer_1" data-name="Layer 1" xmlns="http://www.w3.org/2000/svg" xmlns:xlink="http://www.w3.org/1999/xlink" viewBox="0 0 16 16"><defs><style>.cls-1{fill:url(#linear-gradient);}.cls-2{fill:#65b359;}.cls-3,.cls-5{fill:#007236;}.cls-4,.cls-6{fill:#ccc;}.cls-5{stroke:#65b359;stroke-miterlimit:10;stroke-width:0.75px;}.cls-6{font-size:5.25px;font-family:ZapfDingbatsITC, Zapf Dingbats;}</style><linearGradient id="linear-gradient" x1="4.01" y1="4.86" x2="13.75" y2="14.6" gradientTransform="translate(0.01 -0.39) rotate(0.15)" gradientUnits="userSpaceOnUse"><stop offset="0" stop-color="#82929a"/><stop offset="0.26" stop-color="#7e8d95"/><stop offset="0.58" stop-color="#717f86"/><stop offset="0.92" stop-color="#5c686e"/><stop offset="1" stop-color="#566267"/></linearGradient></defs><title>application-flexmark-spec_dark</title><path class="cls-1" d="M7.56,6.38,7.53,2,13,2l0,13L3,15l0-8.6ZM3,5.45H6.65V2Z"/><rect class="cls-2" x="1.02" y="8" width="14" height="6" rx="3"/><path class="cls-3" d="M4,13.5a2.5,2.5,0,0,1,0-5h8a2.5,2.5,0,0,1,0,5Z"/><path class="cls-4" d="M5.61,10.2l-.46,2.1A7.2,7.2,0,0,1,4.06,15a2.17,2.17,0,0,1-1.83.9,1.27,1.27,0,0,1-.81-.21.63.63,0,0,1-.25-.51.58.58,0,0,1,.2-.46.65.65,0,0,1,.46-.18.58.58,0,0,1,.62.58c0,.19.12.29.26.29s.28-.13.4-.39a8.93,8.93,0,0,0,.44-1.59l.14-.67c.05-.17.08-.29.1-.39l.47-2.17H3.65l.16-.52h.55a4.64,4.64,0,0,1,1-2.12A2.07,2.07,0,0,1,6.79,7a1.7,1.7,0,0,1,.89.21A.63.63,0,0,1,8,7.81a.53.53,0,0,1-.17.41.54.54,0,0,1-.42.18c-.24,0-.46-.17-.63-.52s-.27-.39-.4-.39-.28.21-.36.62L5.73,9.68h.7l-.16.52Z"/><circle class="cls-5" cx="11.52" cy="11.25" r="3.5"/><text class="cls-6" transform="translate(9.41 13.41)">✔︎</text></svg>