<svg id="Layer_1" data-name="Layer 1" xmlns="http://www.w3.org/2000/svg" xmlns:xlink="http://www.w3.org/1999/xlink" viewBox="0 0 16 16"><defs><style>.cls-1{fill:url(#linear-gradient);}.cls-2{fill:url(#linear-gradient-2);}.cls-3{fill:url(#linear-gradient-3);}.cls-4{fill:#007236;}.cls-5,.cls-7{fill:#a3d39c;}.cls-6{fill:#363636;}.cls-7{stroke:#007236;stroke-miterlimit:10;stroke-width:0.75px;}.cls-8{font-size:4.5px;font-family:ZapfDingbatsITC, Zapf Dingbats;}</style><linearGradient id="linear-gradient" x1="6.97" y1="7.1" x2="15.23" y2="15.37" gradientUnits="userSpaceOnUse"><stop offset="0" stop-color="#b4c3cb"/><stop offset="0.21" stop-color="#acbac2"/><stop offset="0.55" stop-color="#97a3aa"/><stop offset="0.98" stop-color="#747d82"/><stop offset="1" stop-color="#727b80"/></linearGradient><linearGradient id="linear-gradient-2" x1="4.47" y1="5.1" x2="12.73" y2="13.37" xlink:href="#linear-gradient"/><linearGradient id="linear-gradient-3" x1="1.93" y1="2.99" x2="10.19" y2="11.25" xlink:href="#linear-gradient"/></defs><title>application-flexmark-spec-multi</title><path class="cls-1" d="M10,8.71,10,5H14.6V16H6.13V8.71ZM6.13,7.93H9.22V5Z"/><path class="cls-2" d="M7.48,6.71,7.45,3H12.1V14H3.63V6.71ZM3.63,5.93H6.72V3Z"/><path class="cls-3" d="M5,4.6l0-3.72H9.56v11H1.1V4.6ZM1.1,3.82H4.18V.88Z"/><rect class="cls-4" y="7.13" width="12" height="5.14" rx="2.14"/><path class="cls-5" d="M2.57,11.84a2.14,2.14,0,0,1,0-4.28H9.43a2.14,2.14,0,1,1,0,4.28Z"/><path class="cls-6" d="M3.94,9l-.4,1.79a6.32,6.32,0,0,1-.93,2.32A1.88,1.88,0,0,1,1,13.9a1.11,1.11,0,0,1-.7-.18.56.56,0,0,1-.21-.44.48.48,0,0,1,.17-.39.53.53,0,0,1,.39-.16.51.51,0,0,1,.54.5c0,.17.1.25.22.25s.24-.11.34-.34a8.08,8.08,0,0,0,.38-1.35l.12-.59c0-.13.06-.24.08-.32L2.77,9H2.25l.14-.45h.48a3.86,3.86,0,0,1,.88-1.82A1.76,1.76,0,0,1,5,6.31a1.45,1.45,0,0,1,.76.18A.55.55,0,0,1,6,7a.52.52,0,0,1-.14.35.49.49,0,0,1-.36.15c-.22,0-.4-.15-.55-.45s-.23-.33-.34-.33-.24.18-.31.54L4,8.57h.59L4.5,9Z"/><circle class="cls-7" cx="9" cy="9.91" r="3"/><text class="cls-8" transform="translate(7.19 11.77)">✔︎</text></svg>