<svg id="Layer_1" data-name="Layer 1" xmlns="http://www.w3.org/2000/svg" viewBox="0 0 16 16"><defs><style>.cls-1{fill:#a3d39c;stroke:#007236;stroke-miterlimit:10;stroke-width:0.5px;}.cls-2{fill:#363636;}</style></defs><title>application-spec-section</title><circle class="cls-1" cx="7.54" cy="8.07" r="6"/><path class="cls-2" d="M9,6,8.29,9.33a11.36,11.36,0,0,1-1.74,4.34,3.48,3.48,0,0,1-2.94,1.44,2.08,2.08,0,0,1-1.3-.34A1,1,0,0,1,1.9,14a1,1,0,0,1,.32-.73,1.06,1.06,0,0,1,.74-.3.94.94,0,0,1,1,.93c0,.32.18.48.41.48s.45-.21.64-.63a14,14,0,0,0,.7-2.55L6,10.06c.07-.26.12-.46.15-.61L6.86,6h-1l.25-.84H7a7.33,7.33,0,0,1,1.64-3.4A3.27,3.27,0,0,1,10.93.89a2.71,2.71,0,0,1,1.42.34,1,1,0,0,1,.55.9.92.92,0,0,1-.26.66.9.9,0,0,1-.68.28c-.4,0-.74-.28-1-.83s-.42-.63-.64-.63-.44.34-.58,1L9.23,5.13h1.12L10.09,6Z"/><path class="cls-2" d="M11.19,11.51l-.91,1a1.62,1.62,0,0,1-1.06.63c-.35,0-.53-.21-.53-.63a3.07,3.07,0,0,1,.18-.92h.65a2.31,2.31,0,0,0-.19.64c0,.12,0,.18.13.18s.19-.08.34-.25L11,10.86l-.32-1c-.11-.33-.21-.49-.32-.49s-.35.23-.49.71H9.34A2.69,2.69,0,0,1,10,8.79a1.4,1.4,0,0,1,1-.45,1,1,0,0,1,.59.22,2.36,2.36,0,0,1,.54,1,8.18,8.18,0,0,1,1.06-1,1,1,0,0,1,.6-.22q.63,0,.63.81a2.07,2.07,0,0,1-.08.58h-.64a1.63,1.63,0,0,0,.14-.59c0-.17,0-.25-.14-.25s-.23.12-.47.35-.55.56-.9,1l.43,1.39A2.55,2.55,0,0,0,13,12a.19.19,0,0,0,.15.1c.2,0,.37-.25.51-.74h.53a2.75,2.75,0,0,1-.7,1.24,1.42,1.42,0,0,1-1,.45.92.92,0,0,1-.53-.16,1.08,1.08,0,0,1-.32-.39C11.52,12.39,11.39,12.05,11.19,11.51Z"/></svg>