<svg id="Layer_1" data-name="Layer 1" xmlns="http://www.w3.org/2000/svg" viewBox="0 0 16 16"><defs><style>.cls-1{fill:#a3d39c;stroke:#007236;stroke-miterlimit:10;stroke-width:0.5px;}.cls-2{fill:#363636;}</style></defs><title>application-flexmark-extension</title><circle class="cls-1" cx="8" cy="8" r="6"/><path class="cls-2" d="M9.5,5.9,8.75,9.26A11.37,11.37,0,0,1,7,13.6,3.5,3.5,0,0,1,4.07,15a2,2,0,0,1-1.29-.34,1,1,0,0,1-.41-.82,1,1,0,0,1,.32-.73,1,1,0,0,1,.74-.3.94.94,0,0,1,1,.93q.08.48.42.48c.23,0,.45-.21.64-.63a15.61,15.61,0,0,0,.7-2.55L6.42,10c.07-.26.12-.46.15-.61L7.33,5.9h-1l.26-.84H7.5a7.23,7.23,0,0,1,1.65-3.4A3.27,3.27,0,0,1,11.4.82a2.74,2.74,0,0,1,1.42.34,1,1,0,0,1,.55.9.93.93,0,0,1-.27.66.87.87,0,0,1-.68.28c-.39,0-.73-.28-1-.83s-.42-.63-.63-.63-.45.34-.58,1l-.5,2.52h1.12l-.25.84Z"/><path class="cls-2" d="M11.66,11.44l-.92,1A1.62,1.62,0,0,1,9.68,13c-.35,0-.52-.21-.52-.63a3.07,3.07,0,0,1,.18-.92H10a2.31,2.31,0,0,0-.19.64c0,.12,0,.18.13.18s.19-.08.35-.25l1.2-1.25-.33-1c-.1-.33-.21-.49-.32-.49s-.34.23-.49.71H9.8a2.88,2.88,0,0,1,.69-1.25,1.44,1.44,0,0,1,1-.45,1,1,0,0,1,.58.22,2.25,2.25,0,0,1,.55,1,7,7,0,0,1,1.06-1,1,1,0,0,1,.59-.22c.43,0,.64.27.64.81a2.1,2.1,0,0,1-.09.58h-.63a1.87,1.87,0,0,0,.14-.59c0-.17,0-.25-.14-.25s-.23.12-.48.35-.55.56-.9,1l.44,1.39a2.82,2.82,0,0,0,.16.45.19.19,0,0,0,.16.1c.19,0,.36-.25.51-.74h.53a2.85,2.85,0,0,1-.7,1.24,1.45,1.45,0,0,1-1,.45.89.89,0,0,1-.52-.16,1,1,0,0,1-.33-.39C12,12.32,11.85,12,11.66,11.44Z"/></svg>