<svg id="Layer_1" data-name="Layer 1" xmlns="http://www.w3.org/2000/svg" xmlns:xlink="http://www.w3.org/1999/xlink" viewBox="0 0 16 16"><defs><style>.cls-1{fill:url(#linear-gradient);}.cls-2{fill:url(#linear-gradient-2);}.cls-3{fill:url(#linear-gradient-3);}.cls-4{fill:#65b359;}.cls-5{fill:#007236;}.cls-6{fill:#ccc;}.cls-7{fill:#4d4017;stroke:#c13641;stroke-miterlimit:10;stroke-width:0.75px;}.cls-8{font-size:4.5px;fill:#c13641;font-family:ZapfDingbatsITC, Zapf Dingbats;}</style><linearGradient id="linear-gradient" x1="7.02" y1="6.92" x2="15.26" y2="15.17" gradientTransform="translate(-0.15 -0.29) rotate(0.15)" gradientUnits="userSpaceOnUse"><stop offset="0" stop-color="#82929a"/><stop offset="0.26" stop-color="#7e8d95"/><stop offset="0.58" stop-color="#717f86"/><stop offset="0.92" stop-color="#5c686e"/><stop offset="1" stop-color="#566267"/></linearGradient><linearGradient id="linear-gradient-2" x1="4.51" y1="4.93" x2="12.76" y2="13.17" xlink:href="#linear-gradient"/><linearGradient id="linear-gradient-3" x1="2.01" y1="2.94" x2="10.25" y2="11.18" xlink:href="#linear-gradient"/></defs><title>application-spec-errors-multi_dark</title><path class="cls-1" d="M9.86,8.27l0-3.71h4.63l0,11L6,15.54,6,8.26ZM6,7.48H9.09V4.56Z"/><path class="cls-2" d="M7.36,6.27l0-3.71H12l0,11-8.43,0,0-7.28ZM3.52,5.48H6.59V2.56Z"/><path class="cls-3" d="M4.86,4.27l0-3.71H9.46l0,11L1,11.54,1,4.26ZM1,3.48H4.09V.56Z"/><rect class="cls-4" x="0.02" y="6.69" width="12" height="5.14" rx="2.57"/><path class="cls-5" d="M2.59,11.4a2.15,2.15,0,0,1,0-4.29H9.45a2.15,2.15,0,0,1,0,4.29Z"/><path class="cls-6" d="M4,8.57l-.4,1.8a6.32,6.32,0,0,1-.93,2.32,1.87,1.87,0,0,1-1.57.76,1.11,1.11,0,0,1-.7-.18.54.54,0,0,1-.21-.43.48.48,0,0,1,.17-.39.53.53,0,0,1,.39-.16.5.5,0,0,1,.54.5c0,.16.1.25.22.25s.24-.11.34-.34a8.29,8.29,0,0,0,.38-1.36l.12-.58c0-.14.06-.25.08-.33l.4-1.86H2.27l.14-.44h.48a3.86,3.86,0,0,1,.88-1.82A1.71,1.71,0,0,1,5,5.87a1.45,1.45,0,0,1,.76.18A.55.55,0,0,1,6,6.53a.52.52,0,0,1-.14.35A.49.49,0,0,1,5.52,7c-.22,0-.4-.15-.55-.45s-.23-.33-.34-.33-.24.18-.31.53L4.06,8.13h.59l-.13.44Z"/><circle class="cls-7" cx="9.02" cy="9.47" r="3"/><text class="cls-8" transform="translate(7.21 11.33)">✔︎</text></svg>