<svg id="Layer_1" data-name="Layer 1" xmlns="http://www.w3.org/2000/svg" viewBox="0 0 16 16"><defs><style>.cls-1{fill:#fff200;stroke:#007236;stroke-miterlimit:10;}.cls-2,.cls-3{fill:#ed1c24;}.cls-3{font-size:6px;font-family:ZapfDingbatsITC, Zapf Dingbats;}</style></defs><title>application-spec-example-no-file-eol</title><circle class="cls-1" cx="8" cy="8" r="6"/><path class="cls-2" d="M8,12.81a15.75,15.75,0,0,0-2-1.6c-.3-.2-.59-.41-.88-.63L5,10.5v-.24L5,10.1,6,9.43A15.47,15.47,0,0,0,8,7.87l.12-.13L8.53,8V9c.7,0,.73-.21.73-.82V4.74h2.63V8.88a2.73,2.73,0,0,1-2.8,2.77H8.53v1.06l-.46.23ZM6.71,10c-.3.2-.36.34-.36.38s.24.28.37.38l.91.71v-.68H9a1.85,1.85,0,0,0,2-2V5.64h-.83V8.17c0,.7,0,1.76-1.74,1.76H7.63V9.32Z"/><text class="cls-3" transform="translate(4.18 7.92)">✘</text></svg>