<svg id="Layer_1" data-name="Layer 1" xmlns="http://www.w3.org/2000/svg" xmlns:xlink="http://www.w3.org/1999/xlink" viewBox="0 0 32 32"><defs><style>.cls-1{fill:#333;}.cls-2{fill:url(#linear-gradient);}.cls-3{fill:url(#linear-gradient-2);}.cls-4{fill:url(#linear-gradient-3);}.cls-5{fill:url(#linear-gradient-4);}.cls-6{fill:url(#radial-gradient);}</style><linearGradient id="linear-gradient" x1="4.48" y1="5.13" x2="17.13" y2="27.02" gradientUnits="userSpaceOnUse"><stop offset="0" stop-color="#993d5a"/><stop offset="0.31" stop-color="#963d5f"/><stop offset="0.7" stop-color="#8c3f6e"/><stop offset="1" stop-color="#80407f"/></linearGradient><linearGradient id="linear-gradient-2" x1="28.68" y1="21.15" x2="42.04" y2="47.8" gradientTransform="translate(-14.88 -17.4) rotate(-3.36)" xlink:href="#linear-gradient"/><linearGradient id="linear-gradient-3" x1="17.51" y1="17.75" x2="27.46" y2="36.53" gradientTransform="translate(-9.48 -12.08) rotate(-2.1)" xlink:href="#linear-gradient"/><linearGradient id="linear-gradient-4" x1="18.68" y1="16.88" x2="28.28" y2="34.89" gradientTransform="translate(-8.83 -11) rotate(-1.94)" xlink:href="#linear-gradient"/><radialGradient id="radial-gradient" cx="4.05" cy="14.02" r="15.47" gradientTransform="translate(11.29 0.98) scale(1.07 1.07)" gradientUnits="userSpaceOnUse"><stop offset="0" stop-color="#993d5a"/><stop offset="0.59" stop-color="#8b3f6e"/><stop offset="1" stop-color="#80407f"/></radialGradient></defs><title>pluginIcon_dark</title><circle class="cls-1" cx="16" cy="16" r="16"/><path class="cls-2" d="M11.78,20.27c-1.59,0-7.3,2.06-7.3,2.06C3.94,13.3,9,5.5,12.88,2.46a36.79,36.79,0,0,0-2,8.91A35.82,35.82,0,0,0,11.78,20.27Z"/><path class="cls-3" d="M29.5,16.49S19.24,11.43,16.82,3.58c0,0-.06,0-.06,0-.07,9.57,2.44,16.45,2.94,17.31C19.72,20.93,29.5,16.49,29.5,16.49Z"/><polygon class="cls-4" points="12.5 2.31 13.77 24.75 15.39 24.08 13.22 2.01 12.5 2.31"/><polygon class="cls-5" points="16.25 2.89 13.77 24.64 15.28 24.77 16.87 2.86 16.25 2.89"/><path class="cls-6" d="M16,32A15.93,15.93,0,0,1,2.48,24.56L1.81,23.5l28.36,0-.67,1A15.91,15.91,0,0,1,16,32ZM2.63,21.94A14.4,14.4,0,0,1,1.37,16a14.63,14.63,0,1,1,28,5.89s1.44.1,1.53-.14A15.81,15.81,0,0,0,32,16,16,16,0,1,0,1.09,21.81C1.18,22,2.63,21.94,2.63,21.94Z"/></svg>