<svg id="Layer_1" data-name="Layer 1" xmlns="http://www.w3.org/2000/svg" xmlns:xlink="http://www.w3.org/1999/xlink" viewBox="0 0 32 32"><defs><style>.cls-1{fill:#fff;}.cls-2{fill:url(#New_Gradient_Swatch_1);}.cls-3{fill:url(#New_Gradient_Swatch_1-2);}.cls-4{fill:url(#linear-gradient);}.cls-5{fill:url(#linear-gradient-2);}.cls-6{fill:url(#radial-gradient);}</style><linearGradient id="New_Gradient_Swatch_1" x1="7.98" y1="0.28" x2="9.88" y2="33.11" gradientUnits="userSpaceOnUse"><stop offset="0" stop-color="#d91c5c"/><stop offset="0.21" stop-color="#d41d60"/><stop offset="0.47" stop-color="#c51f6a"/><stop offset="0.75" stop-color="#ad237a"/><stop offset="1" stop-color="#90278e"/></linearGradient><linearGradient id="New_Gradient_Swatch_1-2" x1="35.65" y1="18.14" x2="37.38" y2="47.94" gradientTransform="translate(-14.82 -15.29) rotate(-3.36)" xlink:href="#New_Gradient_Swatch_1"/><linearGradient id="linear-gradient" x1="22.35" y1="14.06" x2="22.71" y2="37.87" gradientTransform="translate(-9.46 -10.76) rotate(-2.1)" gradientUnits="userSpaceOnUse"><stop offset="0" stop-color="#d91c5c"/><stop offset="0.23" stop-color="#ce1e63"/><stop offset="0.61" stop-color="#b22277"/><stop offset="1" stop-color="#90278e"/></linearGradient><linearGradient id="linear-gradient-2" x1="23.14" y1="12.48" x2="23.51" y2="36.58" gradientTransform="translate(-8.81 -9.78) rotate(-1.94)" xlink:href="#linear-gradient"/><radialGradient id="radial-gradient" cx="15.63" cy="16" r="16.57" gradientUnits="userSpaceOnUse"><stop offset="0" stop-color="#d91c5c"/><stop offset="0.32" stop-color="#c51f6a"/><stop offset="0.99" stop-color="#91278d"/><stop offset="1" stop-color="#90278e"/></radialGradient></defs><title>pluginIcon</title><circle class="cls-1" cx="16" cy="16" r="16"/><path class="cls-2" d="M11.78,20.27c-1.59,0-7.3,2.06-7.3,2.06C3.94,13.3,9,5.5,12.88,2.46a36.79,36.79,0,0,0-2,8.91A35.82,35.82,0,0,0,11.78,20.27Z"/><path class="cls-3" d="M29.5,16.49S19.24,11.43,16.82,3.58c0,0-.06,0-.06,0-.07,9.57,2.44,16.45,2.94,17.31C19.72,20.93,29.5,16.49,29.5,16.49Z"/><polygon class="cls-4" points="12.5 2.31 13.77 24.75 15.39 24.08 13.22 2.01 12.5 2.31"/><polygon class="cls-5" points="16.25 2.89 13.77 24.64 15.28 24.77 16.87 2.86 16.25 2.89"/><path class="cls-6" d="M16,32A15.93,15.93,0,0,1,2.48,24.56L1.81,23.5l28.36,0-.67,1A15.91,15.91,0,0,1,16,32ZM2.63,21.94A14.4,14.4,0,0,1,1.37,16a14.63,14.63,0,1,1,28,5.89s1.44.1,1.53-.14A15.81,15.81,0,0,0,32,16,16,16,0,1,0,1.09,21.81C1.18,22,2.63,21.94,2.63,21.94Z"/></svg>