<svg id="Layer_1" data-name="Layer 1" xmlns="http://www.w3.org/2000/svg" viewBox="0 0 16 16"><defs><style>.cls-1{fill:#9e9e9e;}</style></defs><title>admonition-quote_dark</title><path class="cls-1" d="M6.47,10.15a5.92,5.92,0,0,1-2.94,1.47c-.32.11-.53,0-.95-.31s-.53-.53-.53-.85a.23.23,0,0,1,.21-.21A1.51,1.51,0,0,0,3.11,9.2a5.5,5.5,0,0,0,.42-1.89A2.65,2.65,0,0,0,2,4.58,1.41,1.41,0,0,1,1,3.11c0-.22,0-.32.11-.43.1-.31.73-.73,1.68-1.26a3.44,3.44,0,0,1,2-.63A3.61,3.61,0,0,1,7,2.79a8.91,8.91,0,0,1,.84,3.68A5,5,0,0,1,6.47,10.15Zm7,0a5.91,5.91,0,0,1-2.95,1.47c-.31.11-.52,0-.94-.31S9,10.78,9,10.46a.23.23,0,0,1,.21-.21,1.48,1.48,0,0,0,.84-1.05,5.5,5.5,0,0,0,.42-1.89A2.63,2.63,0,0,0,8.89,4.58,1.48,1.48,0,0,1,8.05,3c0-.21,0-.32.11-.42.1-.32.73-.74,1.68-1.26a3.31,3.31,0,0,1,2-.63,3.63,3.63,0,0,1,2.21,2A7.32,7.32,0,0,1,15,6.26,6.27,6.27,0,0,1,13.42,10.15Z"/></svg>