<svg id="Layer_1" data-name="Layer 1" xmlns="http://www.w3.org/2000/svg" viewBox="0 0 16 16"><defs><style>.cls-1{fill:#bf4c78;}</style></defs><title>admonition-bug_dark</title><path class="cls-1" d="M12.39,9.63,7.91,7.86,3.43,9.54V13l4.48,1.68L12.39,13ZM7.91,12.81,6,12.06v-1.4l1.87-.75,1.86.75v1.4Z"/><path class="cls-1" d="M12.39,5,7.91,3.29,3.43,5V8.42L7.91,10.1l4.48-1.68ZM7.91,8.14,6,7.39V6l1.87-.74L9.77,6v1.4Z"/><path class="cls-1" d="M1,5.43V7.11H2.87L4,6.27,2.87,5.43Z"/><path class="cls-1" d="M1,8.23V9.91H2.87L4,9.07,2.87,8.23Z"/><path class="cls-1" d="M1,11v1.59H2.87L4,11.87,2.87,11Z"/><path class="cls-1" d="M10.8,1.33l1.31.93L11,3.94l-1.12.28L9.68,3.1Z"/><path class="cls-1" d="M5,1.33l-1.3.93L4.83,3.94,6,4.13,6.23,3Z"/><path class="cls-1" d="M15,5.43V7.11H13l-1.12-.84L13,5.43Z"/><path class="cls-1" d="M15,8.23V9.91H13l-1.12-.84L13,8.23Z"/><path class="cls-1" d="M15,11v1.59H13l-1.12-.75L13,11Z"/></svg>