<svg id="Layer_1" data-name="Layer 1" xmlns="http://www.w3.org/2000/svg" viewBox="0 0 16 16"><defs><style>.cls-1{fill:#bf4c4c;}</style></defs><title>admonition-fail_dark</title><path class="cls-1" d="M3.42,1.59,7.75,5.87a.53.53,0,0,0,.81,0l4.32-4.69a.57.57,0,0,1,.89.08l1.12,1.56a.66.66,0,0,1-.08.83L10.08,7.77a.67.67,0,0,0,0,.91l4,4a.63.63,0,0,1,.08.74l-.72,1.32a.58.58,0,0,1-.89.17L8.07,10.65a.73.73,0,0,0-.8,0L3,14.61a.56.56,0,0,1-.88-.17l-.72-2a.53.53,0,0,1,.16-.66L5.19,8.59a.65.65,0,0,0,0-.9l-4-3.88a.56.56,0,0,1,0-.82L2.62,1.51A.59.59,0,0,1,3.42,1.59Z"/></svg>