<svg id="Layer_1" data-name="Layer 1" xmlns="http://www.w3.org/2000/svg" xmlns:xlink="http://www.w3.org/1999/xlink" viewBox="0 0 16 16"><defs><style>.cls-1{opacity:0.5;}.cls-2{fill:url(#linear-gradient);}.cls-3{fill:#f2f2f2;}.cls-4{fill:url(#Logo_Light);}.cls-5{fill:url(#Logo_Light-2);}.cls-6{fill:url(#Logo_Light-3);}.cls-7{fill:url(#Logo_Light-4);}.cls-8{fill:url(#Logo_Light-5);}</style><linearGradient id="linear-gradient" x1="3.08" y1="4.43" x2="12.85" y2="14.2" gradientUnits="userSpaceOnUse"><stop offset="0" stop-color="#b4c3cb"/><stop offset="0.21" stop-color="#acbac2"/><stop offset="0.55" stop-color="#97a3aa"/><stop offset="0.98" stop-color="#747d82"/><stop offset="1" stop-color="#727b80"/></linearGradient><linearGradient id="Logo_Light" x1="6.11" y1="6.34" x2="10.65" y2="14.21" gradientUnits="userSpaceOnUse"><stop offset="0" stop-color="#d91c5c"/><stop offset="0.21" stop-color="#d41d60"/><stop offset="0.47" stop-color="#c51f6a"/><stop offset="0.75" stop-color="#ad237a"/><stop offset="1" stop-color="#90278e"/></linearGradient><linearGradient id="Logo_Light-2" x1="30.88" y1="12.77" x2="35.69" y2="22.35" gradientTransform="translate(-21.69 -5.71) rotate(-3.36)" xlink:href="#Logo_Light"/><linearGradient id="Logo_Light-3" x1="21.01" y1="11.89" x2="24.59" y2="18.64" gradientTransform="translate(-13.82 -4.81) rotate(-2.1)" xlink:href="#Logo_Light"/><linearGradient id="Logo_Light-4" x1="20.72" y1="11.37" x2="24.17" y2="17.85" gradientTransform="translate(-12.86 -4.28) rotate(-1.94)" xlink:href="#Logo_Light"/><linearGradient id="Logo_Light-5" x1="7.37" y1="5.28" x2="13.12" y2="15.24" xlink:href="#Logo_Light"/></defs><title>application-wikipage-hidden</title><g class="cls-1"><path class="cls-2" d="M6.65,6.33,6.61,2H12.1V15H2.1V6.33ZM2.1,5.41H5.74V2Z"/><circle class="cls-3" cx="10.25" cy="10.25" r="5.75"/><path class="cls-4" d="M8.74,11.79a13.82,13.82,0,0,0-2.63.74,9.08,9.08,0,0,1,3-7.15,13.22,13.22,0,0,0-.71,3.21A12.58,12.58,0,0,0,8.74,11.79Z"/><path class="cls-5" d="M15.1,10.43s-3.69-1.82-4.56-4.64c0,0,0,0,0,0A16.09,16.09,0,0,0,11.58,12S15.1,10.43,15.1,10.43Z"/><polygon class="cls-6" points="8.99 5.33 9.45 13.39 10.03 13.15 9.25 5.22 8.99 5.33"/><polygon class="cls-7" points="10.34 5.54 9.45 13.36 9.99 13.4 10.56 5.53 10.34 5.54"/><path class="cls-8" d="M10.25,16a5.72,5.72,0,0,1-4.86-2.68L5.15,13H15.34l-.24.38A5.73,5.73,0,0,1,10.25,16ZM5.44,12.39a5.26,5.26,0,1,1,10.07-2.14,5.14,5.14,0,0,1-.45,2.12s.52,0,.56,0A5.75,5.75,0,1,0,4.5,10.25a5.74,5.74,0,0,0,.39,2.09C4.92,12.42,5.44,12.39,5.44,12.39Z"/></g></svg>