<svg id="Layer_1" data-name="Layer 1" xmlns="http://www.w3.org/2000/svg" xmlns:xlink="http://www.w3.org/1999/xlink" viewBox="0 0 16 16"><defs><style>.cls-1{fill:url(#linear-gradient);}.cls-2{fill:url(#linear-gradient-2);}.cls-3{fill:url(#linear-gradient-3);}.cls-4{fill:#bf4c5d;}.cls-5{fill:#4c383d;}</style><linearGradient id="linear-gradient" x1="7.26" y1="7.36" x2="15.5" y2="15.61" gradientTransform="translate(-0.39 -0.29) rotate(0.15)" gradientUnits="userSpaceOnUse"><stop offset="0" stop-color="#82929a"/><stop offset="0.26" stop-color="#7e8d95"/><stop offset="0.58" stop-color="#717f86"/><stop offset="0.92" stop-color="#5c686e"/><stop offset="1" stop-color="#566267"/></linearGradient><linearGradient id="linear-gradient-2" x1="4.75" y1="5.37" x2="13" y2="13.62" xlink:href="#linear-gradient"/><linearGradient id="linear-gradient-3" x1="2.25" y1="3.38" x2="10.49" y2="11.62" xlink:href="#linear-gradient"/></defs><title>application-wikipage1-multi_dark</title><path class="cls-1" d="M9.86,8.71,9.83,5h4.63l0,11L6,16,6,8.7ZM6,7.92H9.09V5Z"/><path class="cls-2" d="M7.36,6.71,7.33,3H12l0,11L3.5,14l0-7.28ZM3.52,5.92H6.59V3Z"/><path class="cls-3" d="M4.86,4.71,4.83,1H9.46l0,11L1,12,1,4.7ZM1,3.92H4.09V1Z"/><path class="cls-4" d="M14.1,15.1H10c-.35,0-1,.9-1,.9s-.65-.9-1-.9H3.9A1.82,1.82,0,0,1,2,13.39V8.71A1.82,1.82,0,0,1,3.9,7H8c.35,0,1,.9,1,.9S9.65,7,10,7h4.1A1.82,1.82,0,0,1,16,8.71v4.68A1.82,1.82,0,0,1,14.1,15.1Z"/><path class="cls-5" d="M9,14.59a1.48,1.48,0,0,0-1-.39H3.9a.85.85,0,0,1-.9-.81V8.71a.85.85,0,0,1,.9-.81H7.74a3.37,3.37,0,0,1,.42.49L9,9.7l.84-1.31a4.26,4.26,0,0,1,.42-.49H14.1a.85.85,0,0,1,.9.81v4.68a.85.85,0,0,1-.9.81H10A1.48,1.48,0,0,0,9,14.59Z"/><rect class="cls-4" x="4" y="8.8" width="3" height="0.9"/><rect class="cls-4" x="11" y="8.8" width="3" height="0.9" transform="translate(25 18.5) rotate(-180)"/><rect class="cls-4" x="4" y="10.6" width="3" height="0.9"/><rect class="cls-4" x="11" y="10.6" width="3" height="0.9" transform="translate(25 22.1) rotate(-180)"/><rect class="cls-4" x="4" y="12.4" width="3" height="0.9"/><rect class="cls-4" x="11" y="12.4" width="3" height="0.9" transform="translate(25 25.7) rotate(-180)"/><rect class="cls-4" x="8.5" y="7.9" width="1" height="7.2"/></svg>