<svg id="Layer_1" data-name="Layer 1" xmlns="http://www.w3.org/2000/svg" viewBox="0 0 16 16"><defs><style>.cls-1{fill:#8a969b;stroke:#7c878f;stroke-width:0.28px;}.cls-1,.cls-5{stroke-miterlimit:10;}.cls-2{fill:#7c878f;}.cls-3{fill:#c1272d;}.cls-4,.cls-7{fill:#cdd4d9;}.cls-5{fill:none;stroke:#b8c2c9;stroke-width:0.43px;}.cls-6{fill:#e5e7e9;}.cls-7{font-size:9.61px;font-family:MyriadPro-Bold, Myriad Pro;font-weight:700;}</style></defs><title>application-jekyll_add_dark</title><path class="cls-1" d="M6.31,3c0,.29-3.79,10-4,10.61a1.29,1.29,0,0,0,.83,1.49c.65.29,1.6.08,1.8-.4C6,12.06,8.86,4.17,8.86,4.17s.55-.21.55-.57-.73-.77-1.09-1S6.75,2.06,6.4,2.32C6.27,2.42,6.33,2.8,6.31,3Z"/><path class="cls-2" d="M6.26,2.75a2.38,2.38,0,0,1-.21,1s-3.23,8.5-3.65,9.64a1.53,1.53,0,0,0,.71,1.8A2.15,2.15,0,0,1,3,13.83C4.07,11,6.78,3.77,6.78,3.77,6.68,4,6.26,2.75,6.26,2.75Z"/><path class="cls-3" d="M7.35,7c.33-.89-2,5.46-2.75,7.4a1.07,1.07,0,0,1-1.28.36.87.87,0,0,1-.52-1c.5-1.38,1.59-4.26,1.87-5S7,7.84,7.35,7Z"/><ellipse class="cls-4" cx="7.83" cy="3.08" rx="0.31" ry="1.12" transform="translate(1.94 9.09) rotate(-66.99)"/><path class="cls-5" d="M6.31,3c0,.29-3.79,10-4,10.61a1.29,1.29,0,0,0,.83,1.49c.65.29,1.6.08,1.8-.4C6,12.06,8.86,4.17,8.86,4.17s.55-.21.55-.57-.73-.77-1.09-1S6.75,2.06,6.4,2.32C6.27,2.42,6.33,2.8,6.31,3Z"/><circle class="cls-6" cx="5.2" cy="9.63" r="0.3"/><circle class="cls-6" cx="4.51" cy="11.16" r="0.17"/><circle class="cls-6" cx="5.38" cy="10.81" r="0.18"/><circle class="cls-6" cx="3.87" cy="12.7" r="0.36"/><text class="cls-7" transform="translate(8.56 8.71)">+</text></svg>