<svg id="Layer_1" data-name="Layer 1" xmlns="http://www.w3.org/2000/svg" xmlns:xlink="http://www.w3.org/1999/xlink" viewBox="0 0 16 16"><defs><style>.cls-1{fill:url(#linear-gradient);}.cls-2{fill:url(#linear-gradient-2);}.cls-3{fill:url(#linear-gradient-3);}.cls-4{fill:#f35b6d;}.cls-5{fill:#f0d5d9;}</style><linearGradient id="linear-gradient" x1="6.97" y1="7.1" x2="15.23" y2="15.37" gradientUnits="userSpaceOnUse"><stop offset="0" stop-color="#b4c3cb"/><stop offset="0.21" stop-color="#acbac2"/><stop offset="0.55" stop-color="#97a3aa"/><stop offset="0.98" stop-color="#747d82"/><stop offset="1" stop-color="#727b80"/></linearGradient><linearGradient id="linear-gradient-2" x1="4.47" y1="5.1" x2="12.73" y2="13.37" xlink:href="#linear-gradient"/><linearGradient id="linear-gradient-3" x1="1.93" y1="2.99" x2="10.19" y2="11.25" xlink:href="#linear-gradient"/></defs><title>application-markdown1-multi</title><path class="cls-1" d="M10,8.71,10,5H14.6V16H6.13V8.71ZM6.13,7.93H9.22V5Z"/><path class="cls-2" d="M7.48,6.71,7.45,3H12.1V14H3.63V6.71ZM3.63,5.93H6.72V3Z"/><path class="cls-3" d="M5,4.6l0-3.72H9.56v11H1.1V4.6ZM1.1,3.82H4.18V.88Z"/><rect class="cls-4" x="2" y="8" width="14" height="8" rx="1"/><rect class="cls-5" x="3" y="9" width="12" height="6" rx="0.5"/><path d="M5,10H6.81l.69,2.43L8.19,10H10v4H8.88V11L8,14H7L6.12,11V14H5Z"/><polygon points="12.5 14 14 12 11 12 12.5 14"/><rect x="12" y="10" width="1" height="3"/></svg>