<svg id="Layer_1" data-name="Layer 1" xmlns="http://www.w3.org/2000/svg" viewBox="0 0 16 16"><defs><style>.cls-1{fill:#007236;stroke:#65b359;stroke-miterlimit:10;stroke-width:0.5px;}.cls-2{fill:#ccc;}</style></defs><title>application-spec-section_dark</title><circle class="cls-1" cx="8" cy="8.07" r="6"/><path class="cls-2" d="M8.86,6,8.11,9.33a11.52,11.52,0,0,1-1.74,4.34,3.5,3.5,0,0,1-2.95,1.44,2,2,0,0,1-1.29-.34A1,1,0,0,1,1.72,14,1,1,0,0,1,2,13.22a1,1,0,0,1,.74-.3.94.94,0,0,1,1,.93q.08.48.42.48c.23,0,.45-.21.64-.63a15.93,15.93,0,0,0,.7-2.55l.23-1.09c.07-.26.12-.46.15-.61L6.68,6h-1L6,5.13h.89A7.23,7.23,0,0,1,8.5,1.73,3.27,3.27,0,0,1,10.75.89a2.74,2.74,0,0,1,1.42.34,1,1,0,0,1,.55.9.93.93,0,0,1-.27.66.87.87,0,0,1-.68.28c-.39,0-.73-.28-1-.83s-.42-.63-.63-.63-.45.34-.58,1L9,5.13h1.12L9.91,6Z"/><path class="cls-2" d="M11,11.51l-.92,1A1.62,1.62,0,0,1,9,13.09c-.35,0-.52-.21-.52-.63a3.07,3.07,0,0,1,.18-.92h.64a2.76,2.76,0,0,0-.19.64c0,.12,0,.18.13.18s.19-.08.35-.25l1.2-1.25-.33-1c-.1-.33-.21-.49-.32-.49s-.34.23-.49.71H9.15a2.88,2.88,0,0,1,.69-1.25,1.44,1.44,0,0,1,1-.45,1,1,0,0,1,.58.22,2.25,2.25,0,0,1,.55,1,7,7,0,0,1,1.06-1,1,1,0,0,1,.59-.22c.43,0,.64.27.64.81a2.1,2.1,0,0,1-.09.58h-.63a1.87,1.87,0,0,0,.14-.59c0-.17,0-.25-.14-.25s-.23.12-.48.35-.55.56-.9,1l.44,1.39a2.82,2.82,0,0,0,.16.45.19.19,0,0,0,.16.1c.19,0,.36-.25.51-.74H14a2.85,2.85,0,0,1-.7,1.24,1.45,1.45,0,0,1-1,.45.89.89,0,0,1-.52-.16.91.91,0,0,1-.32-.39A9.75,9.75,0,0,1,11,11.51Z"/></svg>