<svg id="Layer_1" data-name="Layer 1" xmlns="http://www.w3.org/2000/svg" xmlns:xlink="http://www.w3.org/1999/xlink" viewBox="0 0 16 16"><defs><style>.cls-1{fill:#29abe2;}.cls-2,.cls-3,.cls-4,.cls-5{stroke:#6a4542;stroke-width:0.26px;}.cls-2,.cls-3,.cls-4,.cls-5,.cls-6{stroke-miterlimit:10;}.cls-2{fill:url(#linear-gradient);}.cls-3{fill:url(#linear-gradient-2);}.cls-4{fill:url(#radial-gradient);}.cls-5{fill:url(#linear-gradient-3);}.cls-6{fill:none;stroke:#f35d6f;stroke-linecap:round;stroke-width:0.75px;}</style><linearGradient id="linear-gradient" x1="4.82" y1="8.86" x2="3.82" y2="12.03" gradientUnits="userSpaceOnUse"><stop offset="0" stop-color="#bc7f14"/><stop offset="0.23" stop-color="#8cc63f"/><stop offset="0.7" stop-color="#8cc63f"/><stop offset="1" stop-color="#bc7f14"/></linearGradient><linearGradient id="linear-gradient-2" x1="4.06" y1="8.2" x2="6.72" y2="4.69" gradientUnits="userSpaceOnUse"><stop offset="0" stop-color="#bc7f14"/><stop offset="0.23" stop-color="#8cc63f"/><stop offset="0.7" stop-color="#fff"/><stop offset="1" stop-color="#bc7f14"/></linearGradient><radialGradient id="radial-gradient" cx="12.56" cy="10.11" r="2.11" gradientUnits="userSpaceOnUse"><stop offset="0" stop-color="#bc7f14"/><stop offset="0" stop-color="#8cc63f"/><stop offset="1" stop-color="#bc7f14"/></radialGradient><linearGradient id="linear-gradient-3" x1="7.68" y1="6.1" x2="13.48" y2="6.1" xlink:href="#linear-gradient"/></defs><title>application-weblink</title><circle class="cls-1" cx="8.08" cy="9.17" r="6.5"/><path class="cls-2" d="M2.94,8.44c.13-.34,1-.39,1.57-.26,1.09.22,2.14,1.12,2,1.69,0,.16-.13.17-.7.61a4,4,0,0,0-1.17,1.13,3,3,0,0,0-.26,1.18c0,.51,0,.69,0,.74s-1.45-.89-1.43-2c0-.89.78-1.22.61-2C3.38,8.92,2.84,8.73,2.94,8.44Z"/><path class="cls-3" d="M3.49,7.71c.88.17,1.42-1,2.13-.78.49.17.92,1,1,1,.13.24.16.4.22.39a1.81,1.81,0,0,0,0-1.61c-.1-.21-.11-.13-.65-1-.22-.33-.27-.43-.48-.74-.5-.75-.49-.83-.61-.87-.38-.14-.87.37-1.48,1s-1.07,1.1-1,1.56A1.21,1.21,0,0,0,3.49,7.71Z"/><path class="cls-4" d="M9.58,8.41a1.63,1.63,0,0,0-.52.95,1.47,1.47,0,0,0,.35,1.09c.36.4.65.18,1.21.56a2.7,2.7,0,0,1,1,1.31,2.15,2.15,0,0,0,.35.82c.07.08.34.4.61.4.76,0,1.24-2.65,1.3-3,.29-1.61.48-2.68-.13-3.18s-1.69-.14-2.78.22A3.15,3.15,0,0,0,9.58,8.41Z"/><path class="cls-5" d="M9.05,8.36c-.55.05-1.7-1.73-1.28-2.48a1.23,1.23,0,0,1,.65-.47c.84-.36,1.09-.28,1.51-.61s.39-.53.89-.83a.85.85,0,0,1,.47-.13c.67.07,1.76,1.39,2.18,2.35,0,.1,0,.49-.22.56s-.6-.58-1.3-.65c-.37,0-.74.11-.74.22s.38.15.39.3-.58.53-.87.35-.11-.94-.31-1-.16.38-.69,1.14S9.15,8.35,9.05,8.36Z"/><path class="cls-6" d="M3.52,3.77H2.85A1.4,1.4,0,0,1,1.46,2.38h0A1.4,1.4,0,0,1,2.85,1h3A1.4,1.4,0,0,1,7.28,2.38h0A1.4,1.4,0,0,1,5.89,3.77"/><path class="cls-6" d="M8.6,2.46h.49a1.4,1.4,0,0,1,1.39,1.39h0A1.4,1.4,0,0,1,9.09,5.24h-3A1.4,1.4,0,0,1,4.66,3.85h0A1.4,1.4,0,0,1,6.05,2.46"/></svg>