<svg id="Layer_1" data-name="Layer 1" xmlns="http://www.w3.org/2000/svg" viewBox="0 0 16 16"><defs><style>.cls-1,.cls-6{fill:#e5e7e9;}.cls-1,.cls-5{stroke:#7c878f;stroke-miterlimit:10;}.cls-1{stroke-width:0.29px;}.cls-2{fill:#f0f1f2;}.cls-3{fill:#c1272d;}.cls-4,.cls-7{fill:#5d656b;}.cls-5{fill:none;stroke-width:0.44px;}.cls-7{font-size:9.87px;font-family:MyriadPro-Bold, Myriad Pro;font-weight:700;}</style></defs><title>application-jekyll_add</title><path class="cls-1" d="M6.53,2.43c0,.29-3.89,10.29-4.09,10.89a1.33,1.33,0,0,0,.86,1.53c.66.3,1.64.08,1.84-.41,1.09-2.67,4-10.77,4-10.77s.56-.22.56-.59S9,2.3,8.6,2.09,7,1.5,6.62,1.77C6.49,1.87,6.55,2.26,6.53,2.43Z"/><path class="cls-2" d="M6.48,2.21a2.47,2.47,0,0,1-.22,1l-3.75,9.9A1.57,1.57,0,0,0,3.24,15a2.24,2.24,0,0,1-.14-1.36C4.23,10.7,7,3.25,7,3.25,6.91,3.51,6.48,2.21,6.48,2.21Z"/><path class="cls-3" d="M7.6,6.52c.34-.91-2,5.61-2.83,7.61a1.1,1.1,0,0,1-1.31.36.87.87,0,0,1-.53-1.07C3.44,12,4.55,9,4.85,8.31S7.25,7.43,7.6,6.52Z"/><ellipse class="cls-4" cx="8.09" cy="2.55" rx="0.32" ry="1.16" transform="translate(2.58 9) rotate(-66.99)"/><path class="cls-5" d="M6.53,2.43c0,.29-3.89,10.29-4.09,10.89a1.33,1.33,0,0,0,.86,1.53c.66.3,1.64.08,1.84-.41,1.09-2.67,4-10.77,4-10.77s.56-.22.56-.59S9,2.3,8.6,2.09,7,1.5,6.62,1.77C6.49,1.87,6.55,2.26,6.53,2.43Z"/><circle class="cls-6" cx="5.39" cy="9.27" r="0.3"/><circle class="cls-6" cx="4.68" cy="10.85" r="0.17"/><circle class="cls-6" cx="5.57" cy="10.49" r="0.18"/><circle class="cls-6" cx="4.02" cy="12.42" r="0.36"/><text class="cls-7" transform="translate(8.52 9.27)">+</text></svg>