<svg id="Layer_1" data-name="Layer 1" xmlns="http://www.w3.org/2000/svg" viewBox="0 0 16 16"><defs><style>.cls-1{fill:#7f47dd;}.cls-2{fill:none;stroke:#f35d6f;stroke-linecap:round;stroke-miterlimit:10;stroke-width:0.75px;}</style></defs><title>application-custom-link</title><path class="cls-1" d="M5.08,14,9.51,6.58a.57.57,0,0,1,1,0L14.92,14a.57.57,0,0,1-.49.85H5.62A.57.57,0,0,1,5.08,14Zm5.79-2.29V8.86a.93.93,0,0,0-.38-.16,2.24,2.24,0,0,0-.55,0H9.78c-.16,0-.27.11-.27.21V11.1a.46.46,0,0,0-.11.21c-.06.16-.06.21,0,.26a3,3,0,0,0,.65.32,1.92,1.92,0,0,0,.66.16h.11c.11,0,.16-.1.16-.26C10.87,11.79,10.87,11.73,10.87,11.73Zm-.43.75a1.66,1.66,0,0,0-.66-.11c-.16,0-.22.06-.27.21v.48c0,.11,0,.16-.06.22s-.11.16,0,.21a1.9,1.9,0,0,0,.65.26,1.88,1.88,0,0,0,.61.11c.11,0,.21,0,.21-.16s.06-.21.06-.37A1.48,1.48,0,0,1,11,13v-.27Z"/><path class="cls-2" d="M3.06,4H2.39A1.39,1.39,0,0,1,1,2.56H1A1.39,1.39,0,0,1,2.39,1.17h3A1.4,1.4,0,0,1,6.82,2.56h0A1.4,1.4,0,0,1,5.43,4"/><path class="cls-2" d="M8.14,2.64h.49A1.4,1.4,0,0,1,10,4h0A1.4,1.4,0,0,1,8.63,5.42h-3A1.4,1.4,0,0,1,4.2,4h0A1.4,1.4,0,0,1,5.59,2.64"/></svg>