<svg id="Layer_1" data-name="Layer 1" xmlns="http://www.w3.org/2000/svg" viewBox="0 0 16 16"><defs><style>.cls-1{fill:#5d656b;stroke:#cdd4d9;}.cls-1,.cls-2,.cls-6{stroke-miterlimit:10;}.cls-2{fill:#8a969b;stroke:#7c878f;stroke-width:0.19px;}.cls-3{fill:#7c878f;}.cls-4{fill:#c1272d;}.cls-5{fill:#cdd4d9;}.cls-6{fill:none;stroke:#b8c2c9;stroke-width:0.28px;}.cls-7{fill:#e5e7e9;}</style></defs><title>application-jekyll_dark</title><circle class="cls-1" cx="8" cy="8" r="6"/><path class="cls-2" d="M8.8,4.22c0,.19-2.49,6.59-2.62,7a.85.85,0,0,0,.55,1c.43.19,1.06.06,1.18-.26C8.61,10.2,10.48,5,10.48,5s.36-.14.36-.38-.48-.5-.71-.64-1-.37-1.27-.2C8.78,3.87,8.82,4.12,8.8,4.22Z"/><path class="cls-3" d="M8.77,4.08a1.62,1.62,0,0,1-.14.64s-2.12,5.59-2.4,6.34a1,1,0,0,0,.47,1.18,1.39,1.39,0,0,1-.09-.87c.72-1.85,2.5-6.62,2.5-6.62C9.05,4.92,8.77,4.08,8.77,4.08Z"/><path class="cls-4" d="M9.49,6.84c.21-.58-1.3,3.59-1.81,4.87a.71.71,0,0,1-.84.24c-.36-.21-.42-.49-.34-.69.32-.9,1-2.8,1.23-3.27S9.27,7.43,9.49,6.84Z"/><ellipse class="cls-5" cx="9.81" cy="4.3" rx="0.2" ry="0.74" transform="translate(2.02 11.64) rotate(-66.99)"/><path class="cls-6" d="M8.8,4.22c0,.19-2.49,6.59-2.62,7a.85.85,0,0,0,.55,1c.43.19,1.06.06,1.18-.26C8.61,10.2,10.48,5,10.48,5s.36-.14.36-.38-.48-.5-.71-.64-1-.37-1.27-.2C8.78,3.87,8.82,4.12,8.8,4.22Z"/><circle class="cls-7" cx="8.07" cy="8.61" r="0.19"/><circle class="cls-7" cx="7.62" cy="9.61" r="0.11"/><circle class="cls-7" cx="8.19" cy="9.38" r="0.12"/><circle class="cls-7" cx="7.2" cy="10.62" r="0.23"/></svg>