<svg id="Layer_1" data-name="Layer 1" xmlns="http://www.w3.org/2000/svg" xmlns:xlink="http://www.w3.org/1999/xlink" viewBox="0 0 16 16"><defs><style>.cls-1{fill:url(#linear-gradient);}.cls-2{fill:#333;}.cls-3{fill:url(#Logo_Dark);}.cls-4{fill:url(#Logo_Dark-2);}.cls-5{fill:url(#Logo_Dark-3);}.cls-6{fill:url(#Logo_Dark-4);}.cls-7{fill:url(#Logo_Dark-5);}</style><linearGradient id="linear-gradient" x1="3.56" y1="4.86" x2="13.3" y2="14.61" gradientTransform="translate(0.46 -0.39) rotate(0.15)" gradientUnits="userSpaceOnUse"><stop offset="0" stop-color="#82929a"/><stop offset="0.26" stop-color="#7e8d95"/><stop offset="0.58" stop-color="#717f86"/><stop offset="0.92" stop-color="#5c686e"/><stop offset="1" stop-color="#566267"/></linearGradient><linearGradient id="Logo_Dark" x1="6.13" y1="6.34" x2="10.67" y2="14.21" gradientUnits="userSpaceOnUse"><stop offset="0" stop-color="#d94b7b"/><stop offset="0.37" stop-color="#d14e8f"/><stop offset="1" stop-color="#bf56bb"/></linearGradient><linearGradient id="Logo_Dark-2" x1="31" y1="9.26" x2="35.8" y2="18.83" gradientTransform="translate(-21.59 -2.2) rotate(-3.36)" xlink:href="#Logo_Dark"/><linearGradient id="Logo_Dark-3" x1="21.07" y1="9.7" x2="24.64" y2="16.45" gradientTransform="translate(-13.78 -2.61) rotate(-2.1)" xlink:href="#Logo_Dark"/><linearGradient id="Logo_Dark-4" x1="20.77" y1="9.34" x2="24.22" y2="15.81" gradientTransform="translate(-12.82 -2.25) rotate(-1.94)" xlink:href="#Logo_Dark"/><linearGradient id="Logo_Dark-5" x1="7.38" y1="5.28" x2="13.13" y2="15.24" xlink:href="#Logo_Dark"/></defs><title>application-wikipage_dark</title><path class="cls-1" d="M7.56,6.38,7.53,2,13,2l0,13L3,15l0-8.6ZM3,5.45H6.65V2Z"/><circle class="cls-2" cx="10.26" cy="10.25" r="5.75"/><path class="cls-3" d="M8.75,11.79a14,14,0,0,0-2.63.74,9.08,9.08,0,0,1,3-7.15,13.25,13.25,0,0,0-.7,3.21A12.63,12.63,0,0,0,8.75,11.79Z"/><path class="cls-4" d="M15.11,10.43s-3.68-1.82-4.55-4.64c0,0,0,0,0,0A15.88,15.88,0,0,0,11.6,12Z"/><polygon class="cls-5" points="9.01 5.33 9.46 13.39 10.04 13.15 9.27 5.22 9.01 5.33"/><polygon class="cls-6" points="10.36 5.54 9.46 13.36 10 13.4 10.58 5.53 10.36 5.54"/><path class="cls-7" d="M10.26,16A5.73,5.73,0,0,1,5.4,13.32L5.17,13H15.36l-.24.38A5.76,5.76,0,0,1,10.26,16Zm-4.8-3.61a5.25,5.25,0,1,1,9.62,0s.52,0,.55,0A5.59,5.59,0,0,0,16,10.25a5.75,5.75,0,1,0-11.1,2.09C4.94,12.42,5.46,12.39,5.46,12.39Z"/></svg>