<svg id="Layer_1" data-name="Layer 1" xmlns="http://www.w3.org/2000/svg" xmlns:xlink="http://www.w3.org/1999/xlink" viewBox="0 0 16 16"><defs><style>.cls-1{fill:#999;}.cls-2{fill:#4d4d4d;}.cls-3{fill:url(#linear-gradient);}.cls-4{fill:url(#linear-gradient-2);}.cls-5{fill:none;stroke:#bf4c5d;stroke-linecap:round;stroke-miterlimit:10;stroke-width:0.75px;}</style><linearGradient id="linear-gradient" x1="5.74" y1="6.73" x2="15" y2="6.73" gradientUnits="userSpaceOnUse"><stop offset="0" stop-color="#c1272d"/><stop offset="0.15" stop-color="#b92b41"/><stop offset="0.46" stop-color="#a63475"/><stop offset="0.9" stop-color="#8743c9"/><stop offset="1" stop-color="#7f47dd"/></linearGradient><linearGradient id="linear-gradient-2" x1="6.26" y1="12.64" x2="9.96" y2="8.94" gradientUnits="userSpaceOnUse"><stop offset="0" stop-color="#c47f14"/><stop offset="0.23" stop-color="#c76b21"/><stop offset="0.71" stop-color="#cf3743"/><stop offset="1" stop-color="#d4145a"/></linearGradient></defs><title>application-jetbrains-link_dark</title><polygon class="cls-1" points="10.37 9.35 15 6.69 15 11.89 10.37 15 10.37 9.35"/><polygon class="cls-2" points="11.24 12.13 11.24 13.4 13.91 11.63 13.91 10.39 11.24 12.13"/><polygon class="cls-3" points="5.74 6.69 10.39 4.11 15 6.69 10.37 9.35 5.74 6.69"/><polygon class="cls-4" points="5.74 6.69 5.74 12.12 10.37 15 10.37 9.35 5.74 6.69"/><path class="cls-5" d="M3.45,4H2.78A1.4,1.4,0,0,1,1.39,2.56h0A1.4,1.4,0,0,1,2.78,1.17h3A1.4,1.4,0,0,1,7.21,2.56h0A1.4,1.4,0,0,1,5.82,4"/><path class="cls-5" d="M8.53,2.64H9A1.4,1.4,0,0,1,10.41,4h0A1.4,1.4,0,0,1,9,5.42H6A1.4,1.4,0,0,1,4.59,4h0A1.4,1.4,0,0,1,6,2.64"/></svg>