<svg id="Layer_1" data-name="Layer 1" xmlns="http://www.w3.org/2000/svg" viewBox="0 0 16 16"><defs><style>.cls-1{fill:#ed1c24;}</style></defs><title>application-delete</title><path class="cls-1" d="M14,3.47a1.48,1.48,0,0,1-.13.21c0,.06-.1.12-.15.18l0,.11c-.78.65-1.52,1.31-2.23,2s-1.39,1.38-2,2.09c.45.51.92,1,1.39,1.53s1,1,1.45,1.52a2,2,0,0,1-.36.66.69.69,0,0,1-.46.24.65.65,0,0,0-.16.21.55.55,0,0,0-.07.25v0l-.23.16-.27.2-.29-.13a1.74,1.74,0,0,1-.3-.2,1.48,1.48,0,0,1-.28.28,2.25,2.25,0,0,1-.36.24l-.26,0c-.37-.38-.74-.77-1.1-1.19s-.7-.86-1-1.32c-.6.64-1.16,1.24-1.67,1.81S4.4,13.45,3.94,14l-.29,0-.36-.36.08-.26-.12-.08-.18,0-.27.12a2.25,2.25,0,0,1-.43-.38,2,2,0,0,1-.31-.46,1.34,1.34,0,0,1,.15-.29.66.66,0,0,0,.09-.18.83.83,0,0,0-.12-.28c-.07-.15-.14-.27-.18-.38.5-.53,1-1.07,1.6-1.63L5.38,8.12A20.32,20.32,0,0,1,4.13,6a22.49,22.49,0,0,1-1-2.25,3.39,3.39,0,0,1,.31-.34,3.07,3.07,0,0,1,.35-.28,1.37,1.37,0,0,1,.25.16.61.61,0,0,1,.16.12l.15-.08.14-.08a.83.83,0,0,1,0-.24.57.57,0,0,1,.12-.18L5,2.72A8.37,8.37,0,0,1,6.48,4.37L7.7,5.93c.74-.72,1.49-1.4,2.25-2.06S11.5,2.6,12.3,2a1.76,1.76,0,0,1,.43.23,1.37,1.37,0,0,1,.33.35l-.12.19a.64.64,0,0,0,.13.15l.17.11h.37Z"/></svg>