<svg id="Layer_1" data-name="Layer 1" xmlns="http://www.w3.org/2000/svg" xmlns:xlink="http://www.w3.org/1999/xlink" viewBox="0 0 16 16"><defs><style>.cls-1{opacity:0.5;}.cls-2{fill:url(#linear-gradient);}.cls-3{fill:#f35b6d;}.cls-4{fill:#f0d5d9;}</style><linearGradient id="linear-gradient" x1="3.08" y1="4.43" x2="12.85" y2="14.2" gradientUnits="userSpaceOnUse"><stop offset="0" stop-color="#b4c3cb"/><stop offset="0.21" stop-color="#acbac2"/><stop offset="0.55" stop-color="#97a3aa"/><stop offset="0.98" stop-color="#747d82"/><stop offset="1" stop-color="#727b80"/></linearGradient></defs><title>application-wikipage1-hidden</title><g class="cls-1"><path class="cls-2" d="M6.65,6.33,6.61,2H12.1V15H2.1V6.33ZM2.1,5.41H5.74V2Z"/><path class="cls-3" d="M13.1,15.1H9c-.35,0-1,.9-1,.9s-.65-.9-1-.9H2.9A1.82,1.82,0,0,1,1,13.39V8.71A1.82,1.82,0,0,1,2.9,7H7c.35,0,1,.9,1,.9S8.65,7,9,7h4.1A1.82,1.82,0,0,1,15,8.71v4.68A1.82,1.82,0,0,1,13.1,15.1Z"/><path class="cls-4" d="M8,14.59a1.48,1.48,0,0,0-1-.39H2.9a.85.85,0,0,1-.9-.81V8.71a.85.85,0,0,1,.9-.81H6.74a3.37,3.37,0,0,1,.42.49L8,9.7l.84-1.31a4.26,4.26,0,0,1,.42-.49H13.1a.85.85,0,0,1,.9.81v4.68a.85.85,0,0,1-.9.81H9A1.48,1.48,0,0,0,8,14.59Z"/><rect class="cls-3" x="3" y="8.8" width="3" height="0.9"/><rect class="cls-3" x="10" y="8.8" width="3" height="0.9" transform="translate(23 18.5) rotate(-180)"/><rect class="cls-3" x="3" y="10.6" width="3" height="0.9"/><rect class="cls-3" x="10" y="10.6" width="3" height="0.9" transform="translate(23 22.1) rotate(-180)"/><rect class="cls-3" x="3" y="12.4" width="3" height="0.9"/><rect class="cls-3" x="10" y="12.4" width="3" height="0.9" transform="translate(23 25.7) rotate(-180)"/><rect class="cls-3" x="7.5" y="7.9" width="1" height="7.2"/></g></svg>