<svg id="Layer_1" data-name="Layer 1" xmlns="http://www.w3.org/2000/svg" xmlns:xlink="http://www.w3.org/1999/xlink" viewBox="0 0 16 16"><defs><style>.cls-1{fill:url(#linear-gradient);}.cls-2{fill:url(#linear-gradient-2);}.cls-3{fill:url(#linear-gradient-3);}.cls-4{fill:#333;}.cls-5{fill:url(#Logo_Dark);}.cls-6{fill:url(#Logo_Dark-2);}.cls-7{fill:url(#Logo_Dark-3);}.cls-8{fill:url(#Logo_Dark-4);}.cls-9{fill:url(#Logo_Dark-5);}</style><linearGradient id="linear-gradient" x1="6.41" y1="7.37" x2="14.65" y2="15.61" gradientTransform="translate(0.46 -0.29) rotate(0.15)" gradientUnits="userSpaceOnUse"><stop offset="0" stop-color="#82929a"/><stop offset="0.26" stop-color="#7e8d95"/><stop offset="0.58" stop-color="#717f86"/><stop offset="0.92" stop-color="#5c686e"/><stop offset="1" stop-color="#566267"/></linearGradient><linearGradient id="linear-gradient-2" x1="3.9" y1="5.37" x2="12.15" y2="13.62" xlink:href="#linear-gradient"/><linearGradient id="linear-gradient-3" x1="1.4" y1="3.38" x2="9.64" y2="11.62" xlink:href="#linear-gradient"/><linearGradient id="Logo_Dark" x1="7.4" y1="7.6" x2="11.35" y2="14.44" gradientUnits="userSpaceOnUse"><stop offset="0" stop-color="#d94b7b"/><stop offset="0.37" stop-color="#d14e8f"/><stop offset="1" stop-color="#bf56bb"/></linearGradient><linearGradient id="Logo_Dark-2" x1="31.63" y1="13.05" x2="35.81" y2="21.38" gradientTransform="translate(-21.66 -4.54) rotate(-3.36)" xlink:href="#Logo_Dark"/><linearGradient id="Logo_Dark-3" x1="22.07" y1="12.47" x2="25.18" y2="18.33" gradientTransform="translate(-13.81 -4.08) rotate(-2.1)" xlink:href="#Logo_Dark"/><linearGradient id="Logo_Dark-4" x1="21.7" y1="11.98" x2="24.7" y2="17.61" gradientTransform="translate(-12.85 -3.61) rotate(-1.94)" xlink:href="#Logo_Dark"/><linearGradient id="Logo_Dark-5" x1="8.49" y1="6.67" x2="13.5" y2="15.34" xlink:href="#Logo_Dark"/></defs><title>application-wikipage-multi_dark</title><path class="cls-1" d="M9.86,8.71,9.83,5h4.63l0,11L6,16,6,8.7ZM6,7.92H9.09V5Z"/><path class="cls-2" d="M7.36,6.71,7.33,3H12l0,11L3.5,14l0-7.28ZM3.52,5.92H6.59V3Z"/><path class="cls-3" d="M4.86,4.71,4.83,1H9.46l0,11L1,12,1,4.7ZM1,3.92H4.09V1Z"/><circle class="cls-4" cx="11" cy="11" r="5"/><path class="cls-5" d="M9.68,12.34A12.65,12.65,0,0,0,7.4,13,7.84,7.84,0,0,1,10,6.77a11.25,11.25,0,0,0-.62,2.78A11.48,11.48,0,0,0,9.68,12.34Z"/><path class="cls-6" d="M15.22,11.15s-3.21-1.58-4-4c0,0,0,0,0,0a13.9,13.9,0,0,0,.92,5.4Z"/><polygon class="cls-7" points="9.91 6.72 10.3 13.73 10.81 13.53 10.13 6.63 9.91 6.72"/><polygon class="cls-8" points="11.08 6.9 10.3 13.7 10.77 13.74 11.27 6.89 11.08 6.9"/><path class="cls-9" d="M11,16a5,5,0,0,1-4.23-2.33l-.2-.33h8.86l-.21.33A5,5,0,0,1,11,16ZM6.82,12.86A4.57,4.57,0,1,1,15.57,11a4.63,4.63,0,0,1-.38,1.84s.45,0,.48,0A5,5,0,1,0,6,11a4.9,4.9,0,0,0,.34,1.82C6.37,12.89,6.82,12.86,6.82,12.86Z"/></svg>