<svg id="Layer_1" data-name="Layer 1" xmlns="http://www.w3.org/2000/svg" xmlns:xlink="http://www.w3.org/1999/xlink" viewBox="0 0 16 16"><defs><style>.cls-1{fill:url(#New_Gradient_Swatch_1);}.cls-2{fill:url(#New_Gradient_Swatch_7);}.cls-3{fill:#fff;}.cls-4{fill:none;stroke:#f35d6f;stroke-linecap:round;stroke-miterlimit:10;stroke-width:0.75px;}</style><linearGradient id="New_Gradient_Swatch_1" x1="5.74" y1="6.73" x2="15" y2="6.73" gradientUnits="userSpaceOnUse"><stop offset="0" stop-color="#ff254a"/><stop offset="0.15" stop-color="#f8215e"/><stop offset="0.45" stop-color="#e61692"/><stop offset="0.88" stop-color="#c805e6"/><stop offset="1" stop-color="#c000fe"/></linearGradient><linearGradient id="New_Gradient_Swatch_7" x1="6.26" y1="12.64" x2="9.96" y2="8.94" gradientUnits="userSpaceOnUse"><stop offset="0" stop-color="#ff7e00"/><stop offset="0.2" stop-color="#ff6a14"/><stop offset="0.61" stop-color="#ff3647"/><stop offset="1" stop-color="#ff007d"/></linearGradient></defs><title>application-jetbrains-link</title><polygon points="10.37 9.35 15 6.69 15 11.89 10.37 15 10.37 9.35"/><polygon class="cls-1" points="5.74 6.69 10.39 4.11 15 6.69 10.37 9.35 5.74 6.69"/><polygon class="cls-2" points="5.74 6.69 5.74 12.12 10.37 15 10.37 9.35 5.74 6.69"/><polygon class="cls-3" points="11.24 12.13 11.24 13.4 13.91 11.63 13.91 10.39 11.24 12.13"/><path class="cls-4" d="M3.45,4H2.78A1.4,1.4,0,0,1,1.39,2.56h0A1.4,1.4,0,0,1,2.78,1.17h3A1.4,1.4,0,0,1,7.21,2.56h0A1.4,1.4,0,0,1,5.82,4"/><path class="cls-4" d="M8.53,2.64H9A1.4,1.4,0,0,1,10.41,4h0A1.4,1.4,0,0,1,9,5.42H6A1.4,1.4,0,0,1,4.59,4h0A1.4,1.4,0,0,1,6,2.64"/></svg>