<svg id="Layer_1" data-name="Layer 1" xmlns="http://www.w3.org/2000/svg" xmlns:xlink="http://www.w3.org/1999/xlink" viewBox="0 0 16 16"><defs><style>.cls-1{fill:url(#linear-gradient);}.cls-2{fill:url(#linear-gradient-2);}.cls-3{fill:url(#linear-gradient-3);}.cls-4{fill:#f35b6d;}.cls-5{fill:#f0d5d9;}</style><linearGradient id="linear-gradient" x1="6.97" y1="7.1" x2="15.23" y2="15.37" gradientUnits="userSpaceOnUse"><stop offset="0" stop-color="#b4c3cb"/><stop offset="0.21" stop-color="#acbac2"/><stop offset="0.55" stop-color="#97a3aa"/><stop offset="0.98" stop-color="#747d82"/><stop offset="1" stop-color="#727b80"/></linearGradient><linearGradient id="linear-gradient-2" x1="4.47" y1="5.1" x2="12.73" y2="13.37" xlink:href="#linear-gradient"/><linearGradient id="linear-gradient-3" x1="1.93" y1="2.99" x2="10.19" y2="11.25" xlink:href="#linear-gradient"/></defs><title>application-wikipage1-multi</title><path class="cls-1" d="M10,8.71,10,5H14.6V16H6.13V8.71ZM6.13,7.93H9.22V5Z"/><path class="cls-2" d="M7.48,6.71,7.45,3H12.1V14H3.63V6.71ZM3.63,5.93H6.72V3Z"/><path class="cls-3" d="M5,4.6l0-3.72H9.56v11H1.1V4.6ZM1.1,3.82H4.18V.88Z"/><path class="cls-4" d="M14.1,15.1H10c-.35,0-1,.9-1,.9s-.65-.9-1-.9H3.9A1.82,1.82,0,0,1,2,13.39V8.71A1.82,1.82,0,0,1,3.9,7H8c.35,0,1,.9,1,.9S9.65,7,10,7h4.1A1.82,1.82,0,0,1,16,8.71v4.68A1.82,1.82,0,0,1,14.1,15.1Z"/><path class="cls-5" d="M9,14.59a1.48,1.48,0,0,0-1-.39H3.9a.85.85,0,0,1-.9-.81V8.71a.85.85,0,0,1,.9-.81H7.74a3.37,3.37,0,0,1,.42.49L9,9.7l.84-1.31a4.26,4.26,0,0,1,.42-.49H14.1a.85.85,0,0,1,.9.81v4.68a.85.85,0,0,1-.9.81H10A1.48,1.48,0,0,0,9,14.59Z"/><rect class="cls-4" x="4" y="8.8" width="3" height="0.9"/><rect class="cls-4" x="11" y="8.8" width="3" height="0.9" transform="translate(25 18.5) rotate(-180)"/><rect class="cls-4" x="4" y="10.6" width="3" height="0.9"/><rect class="cls-4" x="11" y="10.6" width="3" height="0.9" transform="translate(25 22.1) rotate(-180)"/><rect class="cls-4" x="4" y="12.4" width="3" height="0.9"/><rect class="cls-4" x="11" y="12.4" width="3" height="0.9" transform="translate(25 25.7) rotate(-180)"/><rect class="cls-4" x="8.5" y="7.9" width="1" height="7.2"/></svg>