<svg id="Layer_1" data-name="Layer 1" xmlns="http://www.w3.org/2000/svg" xmlns:xlink="http://www.w3.org/1999/xlink" viewBox="0 0 16 16"><defs><style>.cls-1{fill:url(#linear-gradient);}.cls-2{fill:url(#linear-gradient-2);}.cls-3{fill:url(#linear-gradient-3);}.cls-4{fill:#bf4c5d;}.cls-5{fill:#594249;}.cls-6{fill:#ccc;}</style><linearGradient id="linear-gradient" x1="7.2" y1="7.36" x2="15.45" y2="15.61" gradientTransform="translate(-0.34 -0.29) rotate(0.15)" gradientUnits="userSpaceOnUse"><stop offset="0" stop-color="#82929a"/><stop offset="0.26" stop-color="#7e8d95"/><stop offset="0.58" stop-color="#717f86"/><stop offset="0.92" stop-color="#5c686e"/><stop offset="1" stop-color="#566267"/></linearGradient><linearGradient id="linear-gradient-2" x1="4.7" y1="5.37" x2="12.94" y2="13.62" xlink:href="#linear-gradient"/><linearGradient id="linear-gradient-3" x1="2.19" y1="3.38" x2="10.44" y2="11.62" xlink:href="#linear-gradient"/></defs><title>application-markdown1-multi_dark</title><path class="cls-1" d="M9.86,8.71,9.83,5h4.63l0,11L6,16,6,8.7ZM6,7.92H9.09V5Z"/><path class="cls-2" d="M7.36,6.71,7.33,3H12l0,11L3.5,14l0-7.28ZM3.52,5.92H6.59V3Z"/><path class="cls-3" d="M4.86,4.71,4.83,1H9.46l0,11L1,12,1,4.7ZM1,3.92H4.09V1Z"/><rect class="cls-4" x="2" y="8" width="14" height="8" rx="1"/><rect class="cls-5" x="3" y="9" width="12" height="6" rx="0.5"/><path class="cls-6" d="M5,10H6.81l.69,2.43L8.19,10H10v4H8.88V11L8,14H7L6.12,11V14H5Z"/><polygon class="cls-6" points="12.5 14 14 12 11 12 12.5 14"/><rect class="cls-6" x="12" y="10" width="1" height="3"/></svg>