<svg id="Layer_1" data-name="Layer 1" xmlns="http://www.w3.org/2000/svg" xmlns:xlink="http://www.w3.org/1999/xlink" viewBox="0 0 16 16"><defs><style>.cls-1{fill:none;}.cls-2{fill:url(#Logo_Dark);}.cls-3{fill:url(#Logo_Dark-2);}.cls-4{fill:url(#Logo_Dark-3);}.cls-5{fill:url(#Logo_Dark-4);}.cls-6{fill:url(#Logo_Dark-5);}.cls-7{fill:#afb1b3;}</style><linearGradient id="Logo_Dark" x1="2.4" y1="2.6" x2="6.35" y2="9.44" gradientUnits="userSpaceOnUse"><stop offset="0" stop-color="#d94b7b"/><stop offset="0.37" stop-color="#d14e8f"/><stop offset="1" stop-color="#bf56bb"/></linearGradient><linearGradient id="Logo_Dark-2" x1="-1.12" y1="4.6" x2="3.06" y2="12.93" gradientTransform="translate(6.53 -3.02) rotate(-3.36)" xlink:href="#Logo_Dark"/><linearGradient id="Logo_Dark-3" x1="-0.3" y1="5.5" x2="2.81" y2="11.37" gradientTransform="translate(3.81 -2.94) rotate(-2.1)" xlink:href="#Logo_Dark"/><linearGradient id="Logo_Dark-4" x1="0.62" y1="5.19" x2="3.62" y2="10.81" gradientTransform="translate(3.45 -2.53) rotate(-1.94)" xlink:href="#Logo_Dark"/><linearGradient id="Logo_Dark-5" x1="7.46" y1="-19.18" x2="16.8" y2="-19.18" gradientTransform="translate(-7 26.55) scale(1.07 1.07)" xlink:href="#Logo_Dark"/></defs><title>editor_action-suspend-license_dark</title><circle class="cls-1" cx="8.23" cy="8.04" r="7"/><path class="cls-2" d="M4.68,7.34A12.65,12.65,0,0,0,2.4,8,7.84,7.84,0,0,1,5,1.77a11.25,11.25,0,0,0-.62,2.78A11.48,11.48,0,0,0,4.68,7.34Z"/><path class="cls-3" d="M10.22,6.15s-3.21-1.58-4-4c0,0,0,0,0,0a13.9,13.9,0,0,0,.92,5.4Z"/><polygon class="cls-4" points="4.91 1.72 5.3 8.73 5.81 8.53 5.13 1.63 4.91 1.72"/><polygon class="cls-5" points="6.08 1.9 5.3 8.7 5.77 8.74 6.27 1.89 6.08 1.9"/><path class="cls-6" d="M6,11A5,5,0,0,1,1.77,8.67l-.2-.33h8.86l-.21.33A5,5,0,0,1,6,11ZM1.82,7.86A4.57,4.57,0,1,1,10.57,6a4.63,4.63,0,0,1-.38,1.84s.45,0,.48,0A5,5,0,1,0,1,6a4.9,4.9,0,0,0,.34,1.82C1.37,7.89,1.82,7.86,1.82,7.86Z"/><path class="cls-7" d="M7,10.16h8V15H7Zm3.5-2.95c-.83,0-1.5.5-1.5,1.12v2.59c0,.62.67,1.13,1.5,1.13s1.5-.51,1.5-1.13V8.33C12,7.71,11.33,7.21,10.5,7.21ZM14,8.53v1.94a2.73,2.73,0,0,1-2.44,2.75c-1.9.27-3.56-.9-3.56-2.38V8.42C8,6.94,9.66,5.76,11.56,6A2.68,2.68,0,0,1,14,8.53Z"/></svg>