<svg id="Layer_1" data-name="Layer 1" xmlns="http://www.w3.org/2000/svg" xmlns:xlink="http://www.w3.org/1999/xlink" viewBox="0 0 16 16"><defs><style>.cls-1{fill:#333;}.cls-2{fill:url(#Logo_Dark);}.cls-3{fill:url(#Logo_Dark-2);}.cls-4{fill:url(#Logo_Dark-3);}.cls-5{fill:url(#Logo_Dark-4);}.cls-6{fill:url(#Logo_Dark-5);}</style><linearGradient id="Logo_Dark" x1="2.96" y1="3.24" x2="8.49" y2="12.82" gradientUnits="userSpaceOnUse"><stop offset="0" stop-color="#d94b7b"/><stop offset="0.37" stop-color="#d14e8f"/><stop offset="1" stop-color="#bf56bb"/></linearGradient><linearGradient id="Logo_Dark-2" x1="31.06" y1="10.54" x2="36.91" y2="22.2" gradientTransform="translate(-24.07 -6.81) rotate(-3.36)" xlink:href="#Logo_Dark"/><linearGradient id="Logo_Dark-3" x1="19.76" y1="9.44" x2="24.11" y2="17.66" gradientTransform="translate(-15.3 -5.52) rotate(-2.1)" xlink:href="#Logo_Dark"/><linearGradient id="Logo_Dark-4" x1="19.49" y1="8.9" x2="23.69" y2="16.77" gradientTransform="translate(-14.23 -4.94) rotate(-1.94)" xlink:href="#Logo_Dark"/><linearGradient id="Logo_Dark-5" x1="5.39" y1="11.7" x2="11.92" y2="23.02" gradientTransform="translate(-1.28 -10.59) scale(1.07 1.07)" xlink:href="#Logo_Dark"/></defs><title>markdown-navigator_dark</title><circle class="cls-1" cx="8" cy="8" r="7"/><path class="cls-2" d="M6.16,9.87a18.11,18.11,0,0,0-3.2.9A11,11,0,0,1,6.64,2.08,16,16,0,0,0,5.77,6,15.71,15.71,0,0,0,6.16,9.87Z"/><path class="cls-3" d="M13.9,8.21S9.42,6,8.36,2.57c0,0,0,0,0,0a19.52,19.52,0,0,0,1.29,7.57S13.9,8.21,13.9,8.21Z"/><polygon class="cls-4" points="6.47 2.01 7.03 11.83 7.73 11.53 6.79 1.88 6.47 2.01"/><polygon class="cls-5" points="8.11 2.26 7.02 11.78 7.68 11.84 8.38 2.25 8.11 2.26"/><path class="cls-6" d="M8,15a7,7,0,0,1-5.92-3.26l-.29-.46,12.41,0-.29.46A7,7,0,0,1,8,15ZM2.15,10.6A6.26,6.26,0,0,1,1.6,8a6.4,6.4,0,1,1,12.26,2.58s.63,0,.67-.06A7,7,0,1,0,1,8a6.86,6.86,0,0,0,.48,2.54C1.52,10.64,2.15,10.6,2.15,10.6Z"/></svg>