<svg id="Layer_1" data-name="Layer 1" xmlns="http://www.w3.org/2000/svg" xmlns:xlink="http://www.w3.org/1999/xlink" viewBox="0 0 16 16"><defs><style>.cls-1{fill:#f2f2f2;}.cls-2{fill:url(#Logo_Light);}.cls-3{fill:url(#Logo_Light-2);}.cls-4{fill:url(#Logo_Light-3);}.cls-5{fill:url(#Logo_Light-4);}.cls-6{fill:url(#Logo_Light-5);}</style><linearGradient id="Logo_Light" x1="8.26" y1="8.44" x2="11.82" y2="14.6" gradientUnits="userSpaceOnUse"><stop offset="0" stop-color="#d91c5c"/><stop offset="0.21" stop-color="#d41d60"/><stop offset="0.47" stop-color="#c51f6a"/><stop offset="0.75" stop-color="#ad237a"/><stop offset="1" stop-color="#90278e"/></linearGradient><linearGradient id="Logo_Light-2" x1="35.73" y1="10.6" x2="39.48" y2="18.1" gradientTransform="translate(-25.07 -0.92) rotate(-3.36)" xlink:href="#Logo_Light"/><linearGradient id="Logo_Light-3" x1="25.01" y1="11.18" x2="27.81" y2="16.46" gradientTransform="translate(-15.96 -1.84) rotate(-2.1)" xlink:href="#Logo_Light"/><linearGradient id="Logo_Light-4" x1="24.42" y1="10.84" x2="27.12" y2="15.91" gradientTransform="translate(-14.85 -1.54) rotate(-1.94)" xlink:href="#Logo_Light"/><linearGradient id="Logo_Light-5" x1="-43.46" y1="-49.45" x2="-37.71" y2="-39.49" gradientTransform="translate(43.26 46.3) scale(0.78)" xlink:href="#Logo_Light"/></defs><title>overlay-markdown</title><circle class="cls-1" cx="11.5" cy="11.5" r="4.5"/><path class="cls-2" d="M10.31,12.7a11.46,11.46,0,0,0-2.05.58,7.1,7.1,0,0,1,2.36-5.59,10.42,10.42,0,0,0-.55,2.51A10.31,10.31,0,0,0,10.31,12.7Z"/><path class="cls-3" d="M15.3,11.64S12.41,10.21,11.73,8h0a12.55,12.55,0,0,0,.83,4.87S15.3,11.64,15.3,11.64Z"/><polygon class="cls-4" points="10.52 7.65 10.87 13.96 11.33 13.77 10.72 7.57 10.52 7.65"/><polygon class="cls-5" points="11.57 7.81 10.87 13.93 11.3 13.97 11.74 7.8 11.57 7.81"/><path class="cls-6" d="M11.5,16a4.47,4.47,0,0,1-3.8-2.09l-.19-.3h8l-.19.29A4.47,4.47,0,0,1,11.5,16ZM7.74,13.17a4,4,0,0,1-.36-1.67,4.12,4.12,0,1,1,7.89,1.66s.41,0,.43,0A4.5,4.5,0,1,0,7,11.5a4.3,4.3,0,0,0,.31,1.63C7.33,13.2,7.74,13.17,7.74,13.17Z"/></svg>