<svg id="Layer_1" data-name="Layer 1" xmlns="http://www.w3.org/2000/svg" viewBox="0 0 16 16"><defs><style>.cls-1{fill:#afb1b3;}</style></defs><title>style-settings_dark</title><path class="cls-1" d="M8.85,15H7.15A.37.37,0,0,1,7,14.72c0-.41-.08-.83-.11-1.25a.15.15,0,0,0-.14-.15,5.27,5.27,0,0,1-1.48-.59L5,12.6,4,13.46c-.17.14-.27.14-.43,0l-.95-1c-.2-.19-.2-.28,0-.49l.84-1a5.71,5.71,0,0,1-.75-1.76s-.07-.07-.12-.08L1.29,9A.26.26,0,0,1,1,8.73V7.32c0-.22.08-.3.3-.32l1.24-.11a.14.14,0,0,0,.14-.13A5.32,5.32,0,0,1,2.94,6c.13-.33.3-.64.46-1L2.54,4a.26.26,0,0,1,0-.41c.33-.33.67-.66,1-1,.14-.14.25-.14.41,0,.33.26.65.53,1,.8a.12.12,0,0,0,.18,0,5,5,0,0,1,1.62-.67c.11,0,.13-.08.14-.18,0-.42.07-.83.11-1.25A.25.25,0,0,1,7.27,1Q8,1,8.74,1A.25.25,0,0,1,9,1.28c0,.41.08.83.11,1.24,0,.11,0,.16.15.19a5.18,5.18,0,0,1,1.61.67l.1.05,1-.87a.27.27,0,0,1,.43,0l1,.95c.2.2.2.28,0,.49l-.84,1a5.76,5.76,0,0,1,.75,1.77.18.18,0,0,0,.12.08l1.2.11a.4.4,0,0,1,.34.17V8.86a.4.4,0,0,1-.32.17l-1.22.11c-.08,0-.12,0-.14.12a4.84,4.84,0,0,1-.14.51c-.07.2-.16.4-.24.61L11.42,8.93s0-.08,0-.12c0-.2.08-.4.09-.6a3.5,3.5,0,1,0-2.75,3.21.21.21,0,0,1,.24.07c.43.46.87.91,1.3,1.36a.58.58,0,0,1,.1.11l-1.14.37a.13.13,0,0,0-.12.13c0,.41-.08.81-.11,1.22A.38.38,0,0,1,8.85,15Z"/><path class="cls-1" d="M10.44,8.17c-.07.28-.09.42-.17.71a.17.17,0,0,0,.06.22l3.89,3.74a1,1,0,0,1,.29,1,.94.94,0,0,1-.78.7,1,1,0,0,1-.89-.3c-1-1-2-2.05-2.95-3.07l-.82-.85a.15.15,0,0,0-.19-.05A2.42,2.42,0,0,1,5.62,8.5a2.3,2.3,0,0,1,.07-1.22c.07-.21.19-.24.35-.08L7.19,8.35h.49l.66-.67V7.21L7.2,6.07c-.17-.18-.14-.3.09-.37a2.43,2.43,0,0,1,3.12,2l0,.34S10.43,8.16,10.44,8.17Z"/></svg>