<svg id="Layer_1" data-name="Layer 1" xmlns="http://www.w3.org/2000/svg" viewBox="0 0 16 16"><defs><style>.cls-1{fill:#666;}</style></defs><title>style-settings</title><path class="cls-1" d="M8.85,15H7.15A.37.37,0,0,1,7,14.71c0-.42-.08-.83-.11-1.25a.15.15,0,0,0-.14-.15,5.27,5.27,0,0,1-1.48-.59L5,12.58,4,13.45c-.17.14-.27.14-.43,0l-.95-.95c-.2-.19-.2-.28,0-.49l.84-1a5.81,5.81,0,0,1-.75-1.76.14.14,0,0,0-.12-.08L1.29,9C1.1,9,1,8.91,1,8.71V7.31c0-.22.08-.3.3-.32l1.24-.11a.14.14,0,0,0,.14-.13A5.44,5.44,0,0,1,2.94,6c.13-.32.3-.63.46-1L2.54,4a.26.26,0,0,1,0-.41l1-1a.25.25,0,0,1,.41,0c.33.26.65.53,1,.8a.14.14,0,0,0,.18,0,5,5,0,0,1,1.62-.68c.11,0,.13-.07.14-.17,0-.42.07-.83.11-1.25A.26.26,0,0,1,7.27,1H8.74A.25.25,0,0,1,9,1.26c0,.42.08.84.11,1.25,0,.11,0,.16.15.18a5.21,5.21,0,0,1,1.61.68l.1,0,1-.87c.17-.14.28-.14.43,0l1,1c.2.2.2.28,0,.49l-.84,1a5.76,5.76,0,0,1,.75,1.77.15.15,0,0,0,.12.07c.4,0,.8.09,1.2.11a.4.4,0,0,1,.34.17v1.7a.4.4,0,0,1-.32.17c-.41,0-.82.07-1.22.1a.14.14,0,0,0-.14.12,3.8,3.8,0,0,1-.14.51c-.07.21-.16.4-.24.62L11.42,8.92s0-.08,0-.12a6,6,0,0,0,.09-.61,3.5,3.5,0,1,0-2.75,3.22.21.21,0,0,1,.24.07c.43.45.87.9,1.3,1.36a.58.58,0,0,1,.1.11l-1.14.36c-.08,0-.11.06-.12.14,0,.4-.08.81-.11,1.22A.39.39,0,0,1,8.85,15Z"/><path class="cls-1" d="M10.44,8.15c-.07.29-.09.43-.17.71a.17.17,0,0,0,.06.22l3.89,3.75a1,1,0,0,1-.49,1.71,1,1,0,0,1-.89-.31L9.89,11.17l-.82-.86a.14.14,0,0,0-.19,0A2.44,2.44,0,0,1,5.62,8.48a2.26,2.26,0,0,1,.07-1.21c.07-.21.19-.24.35-.08L7.19,8.33h.49l.66-.67V7.19L7.2,6.05c-.17-.17-.14-.29.09-.37a2.44,2.44,0,0,1,3.12,2l0,.34S10.43,8.15,10.44,8.15Z"/></svg>